<svg version="1.1" id="Layer_1" xmlns="http://www.w3.org/2000/svg" xmlns:xlink="http://www.w3.org/1999/xlink" x="0px" y="0px"
	 width="100%" viewBox="0 0 400 165" enable-background="new 0 0 400 165" xml:space="preserve">
<path fill="#000000" opacity="1.000000" stroke="none" 
	d="
M317.000000,166.000000 
	C315.611115,166.000000 314.222198,166.000000 312.202271,165.663055 
	C318.946381,159.829239 314.951324,152.116211 316.018677,145.280914 
	C303.614960,145.360901 302.155792,146.112823 302.003998,152.227417 
	C301.870880,157.590210 303.637573,158.860992 311.674927,159.183731 
	C311.785461,159.591202 311.895966,159.998657 312.006500,160.406128 
	C309.092682,161.188568 306.178833,161.971024 303.264740,162.753540 
	C303.179291,163.801682 303.089661,164.900848 303.000000,166.000000 
	C202.373001,166.000000 101.745987,166.000000 1.059492,166.000000 
	C1.059492,111.061386 1.059492,56.122688 1.059492,1.091996 
	C134.219421,1.091996 267.438904,1.091996 400.829224,1.091996 
	C400.829224,55.999611 400.829224,110.999733 400.829224,166.000000 
	C374.916962,166.000000 348.927155,166.000000 322.272156,165.666260 
	C324.763153,159.082352 327.919281,152.832169 331.380615,145.977539 
	C324.747375,143.729950 327.152222,151.364197 323.736542,151.725830 
	C320.679749,144.508987 320.679749,144.508987 317.161407,147.206421 
	C318.331970,149.876144 319.983124,152.463165 320.520447,155.263870 
	C320.906372,157.275467 319.980286,159.628952 319.307495,161.723251 
	C318.820374,163.239456 317.788788,164.580734 317.000000,166.000000 
M174.454681,148.564514 
	C173.251419,147.702011 172.102600,146.218521 170.833481,146.107254 
	C168.251038,145.880844 164.415146,145.424103 163.263794,146.833450 
	C161.570160,148.906586 160.888901,152.731583 161.503006,155.415176 
	C161.866089,157.001816 165.496475,158.672699 167.760361,158.830383 
	C173.643967,159.240219 175.352768,156.277817 175.672424,148.069275 
	C176.451370,150.751266 177.145065,153.462585 178.051987,156.100571 
	C178.405640,157.129181 179.239319,157.992752 179.854340,158.931503 
	C180.566818,157.926132 181.671997,157.007797 181.917664,155.899002 
	C182.638000,152.648026 183.016388,149.321274 183.528702,146.024216 
	C183.994843,146.039642 184.460983,146.055069 184.927124,146.070480 
	C183.984848,145.159302 183.042587,144.248123 182.100327,143.336929 
	C183.044724,142.523727 183.989120,141.710526 185.094910,140.758362 
	C179.927780,138.872437 176.154984,141.785431 174.454681,148.564514 
M235.649216,82.006081 
	C244.196228,81.319763 252.741226,80.607071 261.290680,79.952637 
	C278.722107,78.618317 296.148346,77.201805 313.591797,76.046120 
	C322.681732,75.443893 331.804657,75.347069 340.909515,74.949989 
	C341.787476,74.911690 342.643127,74.362427 343.509155,74.050369 
	C339.292206,72.266258 335.051117,71.253677 330.775543,71.077461 
	C317.840240,70.544350 304.892426,70.292130 291.947632,70.018867 
	C285.551575,69.883850 285.011536,69.469254 285.004883,63.214340 
	C284.989227,48.551460 284.998505,33.888557 284.997742,19.225664 
	C284.997620,16.622408 284.997742,14.019152 284.997742,11.118366 
	C289.793640,11.118366 293.951447,10.823808 298.048096,11.198199 
	C302.466003,11.601953 305.134430,14.432559 305.890778,20.379374 
	C309.268494,14.343878 307.562134,9.581584 307.872559,4.525504 
	C288.368286,4.525504 269.532684,4.525504 250.007721,4.525504 
	C249.309158,8.657912 248.557388,13.105175 247.584061,18.863014 
	C256.985168,10.790214 262.724884,9.337653 272.975372,11.815013 
	C272.975372,28.198629 273.370697,44.682106 272.822754,61.134174 
	C272.508820,70.560410 271.287170,70.880699 261.606506,71.042931 
	C255.669617,71.142418 249.727112,71.516533 243.809631,72.027916 
	C233.307724,72.935486 222.637909,73.139084 212.368225,75.245522 
	C188.489502,80.143349 164.484756,84.891930 141.113785,91.701050 
	C95.391937,105.022102 52.310921,124.755760 11.421738,149.194473 
	C8.743024,150.795471 6.403812,152.964508 3.906681,154.869324 
	C4.180589,155.236023 4.454498,155.602722 4.728406,155.969421 
	C6.179005,155.303574 7.706341,154.766266 9.068870,153.952881 
	C36.668095,137.476868 65.954697,124.515816 96.294968,114.264793 
	C118.566742,106.739861 141.424866,100.844353 164.230225,95.042427 
	C179.117538,91.254951 194.356964,88.820915 209.479996,86.002487 
	C217.855804,84.441505 226.316681,83.337074 235.649216,82.006081 
M20.255182,65.649025 
	C19.704256,52.378338 19.153332,39.107651 18.602406,25.836966 
	C19.120335,25.732349 19.638262,25.627733 20.156191,25.523117 
	C22.264704,28.011141 24.218479,30.652555 26.507498,32.961643 
	C38.934242,45.497330 51.415424,57.979645 63.971832,70.385231 
	C65.133179,71.532631 66.954193,72.012344 68.468903,72.802086 
	C68.979263,71.167969 69.918213,69.537582 69.932487,67.899147 
	C70.051407,54.245152 69.545609,40.568417 70.183174,26.943220 
	C70.524567,19.647375 68.090660,11.218421 76.656525,5.438098 
	C69.155624,5.438098 62.717606,5.438098 56.279587,5.438098 
	C60.839077,8.206840 63.040947,11.937657 63.002174,17.038666 
	C62.974331,20.701986 62.999668,24.365707 62.999905,28.029249 
	C63.000423,36.079185 63.000065,44.129120 63.000065,52.179054 
	C59.270077,49.604179 56.858627,46.513401 54.152493,43.706757 
	C42.169937,31.279139 30.133455,18.902861 18.015900,6.607136 
	C16.876297,5.450778 15.033063,4.987857 13.516514,4.202985 
	C13.011180,5.847020 12.078053,7.488134 12.066806,9.135543 
	C11.956546,25.287691 12.222648,41.445923 11.857770,57.590584 
	C11.754223,62.172195 12.912193,68.010246 6.487618,70.257668 
	C6.304729,70.321640 6.386302,71.141624 6.360483,71.430786 
	C13.222664,71.430786 19.977776,71.430786 27.247219,71.430786 
	C24.674362,69.400368 22.719883,67.857964 20.255182,65.649025 
M123.000259,23.508736 
	C123.000008,39.142792 123.092148,54.777615 122.962395,70.410599 
	C122.892441,78.839661 120.385735,86.215660 112.829559,91.118469 
	C111.884758,91.731499 111.480675,93.177887 110.346771,95.014374 
	C123.970734,90.837219 135.694031,78.493073 135.126633,63.209995 
	C134.553162,47.763554 135.066742,32.278759 134.957535,16.811798 
	C134.926743,12.448047 134.482925,8.161016 140.258224,7.020137 
	C140.516663,6.969084 140.584030,5.950840 140.750793,5.345365 
	C132.426498,5.345365 124.388466,5.345365 115.570717,5.345365 
	C116.509346,6.519212 117.007538,7.629670 117.434013,7.602780 
	C124.286354,7.170721 122.976456,12.029609 122.997833,16.027655 
	C123.009399,18.189747 122.999992,20.351955 123.000259,23.508736 
M204.374634,8.034601 
	C205.478424,7.681398 206.582230,7.328195 207.686020,6.974992 
	C207.623871,6.532616 207.561722,6.090240 207.499573,5.647864 
	C199.456863,5.647864 191.414169,5.647864 183.371475,5.647864 
	C184.140900,6.981582 185.422028,7.323625 186.385223,8.073873 
	C187.408447,8.870876 188.866058,10.049127 188.874222,11.070954 
	C189.020782,29.430317 189.009399,47.791443 188.876892,66.151077 
	C188.870071,67.093552 187.614914,68.213310 186.686691,68.913330 
	C185.644226,69.699486 184.312653,70.102272 183.106842,70.671844 
	C183.207993,70.986275 183.309128,71.300713 183.410278,71.615143 
	C191.816483,71.615143 200.222687,71.615143 208.628891,71.615143 
	C207.544113,70.025734 206.073532,69.648262 204.785950,68.938728 
	C203.761719,68.374321 202.356476,67.524483 202.170914,66.592255 
	C201.532135,63.383129 201.080215,60.084831 201.049393,56.815865 
	C200.930130,44.166553 200.815430,31.510988 201.119247,18.867849 
	C201.205399,15.282413 202.718552,11.731266 204.374634,8.034601 
M162.415604,125.929947 
	C163.198364,122.720650 163.981125,119.511353 164.849670,115.950394 
	C166.560471,118.165764 167.954346,120.429985 169.800903,122.229744 
	C171.566040,123.950119 173.802124,125.187302 176.781708,127.315918 
	C176.781708,119.828186 176.781708,114.208908 176.781708,107.672981 
	C170.131927,109.343529 174.871780,115.130898 172.467484,117.668930 
	C167.830765,115.377426 167.311707,107.762611 160.006454,108.104675 
	C160.006454,113.157974 159.917709,117.972786 160.075378,122.779510 
	C160.110245,123.842445 161.016754,124.876785 162.415604,125.929947 
M203.135117,119.797913 
	C203.970459,121.846321 204.805817,123.894722 205.788788,126.305138 
	C213.364288,124.966789 210.255096,117.149315 214.576385,113.776352 
	C208.205719,111.377640 210.059830,117.883438 207.869736,118.881340 
	C205.340363,117.082001 206.490402,112.090904 201.560303,113.168846 
	C200.680466,115.373390 199.813843,117.544838 198.606003,120.571236 
	C197.708160,117.398308 197.100418,115.250587 196.436920,112.905876 
	C194.935715,113.074936 193.549500,113.231049 192.062027,113.398567 
	C192.828659,115.588242 193.269287,117.515892 194.154190,119.211716 
	C195.369644,121.540977 196.921646,123.694618 198.329437,125.923508 
	C199.715729,123.754784 201.102036,121.586052 203.135117,119.797913 
M242.678635,158.744125 
	C243.712265,158.524841 245.644531,158.309723 245.645584,158.085648 
	C245.662933,154.346771 246.173538,150.333588 244.931381,146.992249 
	C244.381409,145.512817 240.174927,145.392700 237.111801,144.505997 
	C237.110489,144.482681 237.293732,143.407074 236.943787,142.548859 
	C236.437820,141.308029 235.545624,140.224701 234.818192,139.074158 
	C234.213623,140.190781 233.125229,141.291000 233.086761,142.426804 
	C232.903122,147.848709 233.004501,153.280258 233.004501,158.708389 
	C233.651871,158.921646 234.299240,159.134903 234.946609,159.348145 
	C235.630554,157.972610 236.721832,156.650833 236.911911,155.210144 
	C237.284042,152.389252 236.307541,149.085846 241.437546,147.879379 
	C241.692139,151.425095 241.929047,154.724518 242.678635,158.744125 
M212.513321,145.013596 
	C207.607574,145.504471 205.563293,148.414917 206.053726,153.090988 
	C206.518158,157.519028 209.444244,159.113876 213.622498,159.007889 
	C216.028946,158.946823 218.427460,158.994339 217.808105,155.842575 
	C215.383850,155.524734 213.249603,155.244919 211.115356,154.965088 
	C211.176834,154.422867 211.238327,153.880630 211.299820,153.338409 
	C213.805069,153.109650 216.310303,152.880890 218.907593,152.643723 
	C219.208130,148.164810 217.239151,145.856247 212.513321,145.013596 
M370.177917,113.917236 
	C369.125183,117.080376 371.921204,121.419930 366.424500,124.015327 
	C366.162506,120.227898 365.932190,116.898506 365.685120,113.326675 
	C364.157288,113.326675 362.788635,113.326675 361.458710,113.326675 
	C359.867737,125.768883 361.942413,127.767700 373.982483,125.269890 
	C373.982483,122.052109 374.200745,118.724434 373.833801,115.462601 
	C373.738373,114.613914 371.816467,113.970695 370.177917,113.917236 
M190.200775,119.962067 
	C190.784302,119.183434 192.027893,118.106575 191.834656,117.678894 
	C191.083801,116.017052 190.006714,113.403099 188.812119,113.268799 
	C186.279556,112.984100 182.939987,113.226997 181.121841,114.711563 
	C177.958160,117.294807 178.091339,121.109924 180.879456,124.280495 
	C184.246857,128.109818 187.939346,127.380836 191.941727,124.562126 
	C189.902939,122.019211 184.250259,126.089714 184.393356,119.988014 
	C186.090256,119.988014 187.725616,119.988014 190.200775,119.962067 
M202.008438,145.863632 
	C202.947937,144.903107 203.850525,143.902328 204.839233,142.995468 
	C205.561066,142.333389 206.396332,141.794983 208.181671,140.444565 
	C201.825089,140.444565 197.019943,140.444565 192.214783,140.444565 
	C192.092087,140.870804 191.969391,141.297043 191.846695,141.723282 
	C193.480896,142.426498 195.115097,143.129700 197.006226,143.943466 
	C197.006226,147.648941 197.140060,151.452927 196.969833,155.243240 
	C196.787537,159.302246 198.715500,159.492844 202.002380,158.389679 
	C202.002380,154.378433 202.002380,150.584229 202.008438,145.863632 
M281.991638,125.447990 
	C280.686523,127.750870 279.381409,130.053741 277.932648,132.610107 
	C284.068481,132.104538 290.376221,121.993912 289.396515,112.585037 
	C287.803528,114.918671 286.210541,117.252296 284.856110,119.236443 
	C282.266235,117.616257 283.925659,111.719604 277.711914,113.603317 
	C279.190674,117.430984 280.584167,121.037933 281.991638,125.447990 
M275.201416,146.142807 
	C271.474945,143.540222 267.773773,145.180008 265.461731,147.676971 
	C264.078796,149.170532 264.341858,152.936691 264.983429,155.388718 
	C266.065399,159.523941 269.959717,159.240768 273.214813,158.923965 
	C278.092316,158.449249 279.385132,152.138168 275.201416,146.142807 
M232.569534,113.844887 
	C229.578384,115.995880 228.602295,120.704742 230.489761,123.878242 
	C232.648468,127.507812 236.559387,127.865570 241.906418,124.895172 
	C240.778946,121.157547 233.990540,126.577240 234.416443,120.187912 
	C236.879547,120.043236 239.309280,119.900520 241.720657,119.758888 
	C241.618057,113.214401 240.663589,112.532600 232.569534,113.844887 
M388.648163,113.916626 
	C385.179657,116.353203 384.927124,119.996552 386.760437,122.993698 
	C388.630432,126.050789 391.796783,128.465286 395.932251,126.021034 
	C396.710541,125.561028 397.207581,124.625183 397.834412,123.908913 
	C396.986115,123.727997 396.110107,123.628075 395.295319,123.349205 
	C393.630219,122.779289 391.998047,122.113144 390.352325,121.486633 
	C390.530975,120.952995 390.709625,120.419365 390.888245,119.885727 
	C393.494019,119.885727 396.099792,119.885727 398.747833,119.885727 
	C397.921509,113.429565 396.569000,112.547287 388.648163,113.916626 
M286.252106,151.621857 
	C288.250336,158.655075 293.101715,161.683960 297.151703,157.967316 
	C298.982056,156.287643 299.888916,152.802643 299.900208,150.131134 
	C299.916260,146.337570 296.558655,145.067230 293.302948,145.097992 
	C289.674255,145.132278 287.190216,147.115280 286.252106,151.621857 
M252.828537,158.040176 
	C252.888611,155.879639 252.656586,153.654358 253.115967,151.582367 
	C253.401093,150.296417 254.734680,149.242920 255.597626,148.085098 
	C256.396637,149.308411 257.514648,150.438675 257.906189,151.780853 
	C258.309326,153.162796 257.648651,154.875687 258.115967,156.212112 
	C258.527863,157.389984 259.853638,158.248260 261.525848,160.060425 
	C262.884155,145.380737 261.433563,143.906738 249.008133,145.687958 
	C249.008133,149.119919 249.093277,152.602692 248.979675,156.078964 
	C248.897141,158.604080 249.953232,159.395706 252.828537,158.040176 
M274.010254,123.496567 
	C272.297882,122.896980 270.585510,122.297394 268.873138,121.697815 
	C269.051575,121.210098 269.230011,120.722382 269.408447,120.234665 
	C271.818634,120.067154 274.228821,119.899635 278.220551,119.622200 
	C276.582245,116.925140 275.604767,113.646645 274.294739,113.507881 
	C271.593384,113.221756 267.042480,113.845764 266.291443,115.486404 
	C265.095367,118.099342 265.286743,122.717682 266.969818,124.838379 
	C268.281769,126.491432 272.794769,126.038330 275.807434,125.738678 
	C277.520477,125.568291 277.373779,124.675171 274.010254,123.496567 
M314.843842,113.014946 
	C312.670044,113.121857 310.496246,113.228767 308.213379,113.341042 
	C308.213379,117.525055 308.213379,121.463402 308.213379,125.401749 
	C308.569519,125.728378 308.925690,126.055016 309.281830,126.381645 
	C310.182007,125.436760 311.377930,124.627502 311.892395,123.505722 
	C312.333923,122.542946 311.682770,121.100128 312.078125,120.090096 
	C312.642365,118.648643 313.720856,117.408501 314.579712,116.082382 
	C315.385437,117.461990 316.353333,118.777313 316.935181,120.245628 
	C317.276825,121.107857 316.677185,122.383018 317.084961,123.169708 
	C317.692932,124.342522 318.816650,125.247978 319.720947,126.267197 
	C320.146576,125.934914 320.572205,125.602631 320.997833,125.270340 
	C320.997833,122.965996 320.926514,120.658928 321.014038,118.357918 
	C321.157013,114.599640 319.456543,112.784355 314.843842,113.014946 
M223.000458,115.579193 
	C222.665375,120.506149 222.330307,125.433105 221.988998,130.451752 
	C225.202606,130.968811 226.734207,130.066605 226.907150,126.136993 
	C227.166763,120.237671 226.974686,114.318466 226.974686,108.131760 
	C220.733582,107.954529 223.930222,112.435204 223.000458,115.579193 
M356.028625,116.863747 
	C357.218445,115.873734 358.408264,114.883720 359.305328,114.137291 
	C357.846375,112.611061 356.296448,110.989670 354.570312,109.183952 
	C353.900085,109.661766 352.830322,110.156326 352.143280,110.972893 
	C350.907135,112.442024 351.806854,124.161766 353.352325,125.403030 
	C355.480835,127.112511 357.842773,128.196121 360.466919,124.439240 
	C354.974060,124.373589 356.083618,120.730743 356.028625,116.863747 
M222.106598,157.529144 
	C224.940720,158.103989 227.774841,158.678818 230.608963,159.253662 
	C231.021973,158.520660 231.434982,157.787643 231.847992,157.054642 
	C231.025681,156.718185 230.181702,156.050812 229.384796,156.102997 
	C226.058014,156.320831 223.842850,154.427643 224.496307,151.641891 
	C224.898300,149.928146 228.056931,148.861053 230.849792,146.887421 
	C230.875641,144.374268 228.096497,144.691910 225.793701,145.206268 
	C220.718018,146.339951 218.962692,151.456619 222.106598,157.529144 
M260.586578,116.020172 
	C261.340515,115.336838 262.094482,114.653503 262.848450,113.970177 
	C261.678650,113.649803 260.405518,112.873955 259.362061,113.110596 
	C257.578796,113.515007 255.838562,114.406395 254.320251,115.444344 
	C253.995743,115.666191 254.407410,117.602943 254.983536,118.372726 
	C256.218872,120.023232 257.782806,121.427788 260.123444,123.892670 
	C257.277740,123.661491 255.827911,123.543716 254.378098,123.425934 
	C254.921051,125.209587 256.140259,126.814049 257.294159,126.768372 
	C259.081604,126.697601 261.387695,125.939926 262.402283,124.638252 
	C263.169434,123.654022 262.487946,121.302055 262.032074,119.676323 
	C261.645905,118.299255 260.659180,117.090607 260.586578,116.020172 
M376.941437,116.131889 
	C376.965210,118.294853 376.760468,120.490181 377.061310,122.613892 
	C377.649109,126.763496 381.351288,127.930450 384.784119,125.186172 
	C379.477875,121.380531 379.441589,116.792938 384.130920,114.110062 
	C382.752167,112.680237 381.276031,111.149445 379.498810,109.306404 
	C377.070251,110.147285 375.847412,112.133789 376.941437,116.131889 
M335.768768,124.365631 
	C337.831146,126.957840 340.040833,128.316605 342.944916,125.319954 
	C337.480560,121.351021 337.443817,116.740349 342.149872,114.111992 
	C340.774231,112.698807 339.289185,111.173195 337.018066,108.840065 
	C336.140167,110.613228 334.544159,112.485649 334.384216,114.473602 
	C334.139008,117.521507 334.882477,120.648956 335.768768,124.365631 
M330.857147,115.831223 
	C331.130829,115.054596 331.404480,114.277969 331.678162,113.501343 
	C329.327515,113.668427 326.976868,113.835510 324.626221,114.002594 
	C324.879486,115.962059 324.791809,118.059967 325.510651,119.830399 
	C325.960419,120.938156 327.624695,121.552795 329.310913,122.812050 
	C326.769257,123.460648 324.901703,123.937225 323.034149,124.413803 
	C324.422455,125.918602 325.747253,126.992424 326.758057,126.751099 
	C328.729401,126.280403 331.161346,125.503326 332.164520,124.017342 
	C332.808380,123.063583 331.408081,120.535362 330.600006,118.870140 
	C330.128021,117.897545 329.018097,117.234528 328.195190,116.432236 
	C328.843872,116.151619 329.492554,115.871002 330.857147,115.831223 
M280.000000,144.693314 
	C280.006989,148.650574 279.917480,152.612320 280.100494,156.561432 
	C280.138123,157.373718 281.193451,158.138855 281.779694,158.925720 
	C282.513458,158.121384 283.856110,157.336838 283.882996,156.509521 
	C284.069000,150.785400 283.980988,145.052368 283.980988,139.438812 
	C278.897827,138.207870 280.286499,141.623672 280.000000,144.693314 
M305.000000,116.516975 
	C304.994690,114.539795 305.321869,112.479843 304.858032,110.616806 
	C304.584625,109.518410 303.057404,108.732147 301.262268,107.005394 
	C301.262268,114.434746 301.262268,119.986420 301.262268,125.538086 
	C301.673584,125.819206 302.084900,126.100334 302.496216,126.381454 
	C303.325378,125.391121 304.639771,124.503197 304.875244,123.387566 
	C305.274933,121.493591 304.994537,119.456093 305.000000,116.516975 
M252.930176,114.184677 
	C250.121307,113.703835 247.312439,113.223000 244.271149,112.702370 
	C244.271149,117.442108 244.271149,121.521072 244.271149,127.274910 
	C246.151413,125.528442 247.925217,124.571060 247.832977,123.853630 
	C247.267181,119.453354 248.928024,116.579262 252.930176,114.184677 
M348.999908,120.417305 
	C348.999451,119.266380 349.055054,118.111923 348.982605,116.965546 
	C348.911499,115.840424 349.051941,114.448570 348.448029,113.697968 
	C348.033234,113.182449 346.505280,113.562538 345.474884,113.542297 
	C345.514008,117.571487 345.553131,121.600670 345.592285,125.629860 
	C346.621765,125.495010 348.282104,125.681458 348.548645,125.158058 
	C349.094849,124.085594 348.893219,122.632286 348.999908,120.417305 
z"/>
<path fill="#CC0000" opacity="1.000000" stroke="none" 
	d="
M303.450012,166.000000 
	C303.089661,164.900848 303.179291,163.801682 303.264740,162.753540 
	C306.178833,161.971024 309.092682,161.188568 312.006500,160.406128 
	C311.895966,159.998657 311.785461,159.591202 311.674927,159.183731 
	C303.637573,158.860992 301.870880,157.590210 302.003998,152.227417 
	C302.155792,146.112823 303.614960,145.360901 316.018677,145.280914 
	C314.951324,152.116211 318.946381,159.829239 311.785583,165.663055 
	C309.299988,166.000000 306.599976,166.000000 303.450012,166.000000 
M311.521301,153.956375 
	C310.800568,152.034348 310.079803,150.112320 309.359039,148.190323 
	C308.495056,148.681168 306.965881,149.088074 306.891388,149.678528 
	C306.665039,151.472198 307.001038,153.336838 307.118011,155.173828 
	C308.438782,154.988251 309.759521,154.802689 311.521301,153.956375 
z"/>
<path fill="#CE0000" opacity="1.000000" stroke="none" 
	d="
M317.416656,166.000000 
	C317.788788,164.580734 318.820374,163.239456 319.307495,161.723251 
	C319.980286,159.628952 320.906372,157.275467 320.520447,155.263870 
	C319.983124,152.463165 318.331970,149.876144 317.161407,147.206421 
	C320.679749,144.508987 320.679749,144.508987 323.736542,151.725830 
	C327.152222,151.364197 324.747375,143.729950 331.380615,145.977539 
	C327.919281,152.832169 324.763153,159.082352 321.803528,165.666260 
	C320.611115,166.000000 319.222198,166.000000 317.416656,166.000000 
z"/>
<path fill="#CC0000" opacity="1.000000" stroke="none" 
	d="
M235.194214,82.016464 
	C226.316681,83.337074 217.855804,84.441505 209.479996,86.002487 
	C194.356964,88.820915 179.117538,91.254951 164.230225,95.042427 
	C141.424866,100.844353 118.566742,106.739861 96.294968,114.264793 
	C65.954697,124.515816 36.668095,137.476868 9.068870,153.952881 
	C7.706341,154.766266 6.179005,155.303574 4.728406,155.969421 
	C4.454498,155.602722 4.180589,155.236023 3.906681,154.869324 
	C6.403812,152.964508 8.743024,150.795471 11.421738,149.194473 
	C52.310921,124.755760 95.391937,105.022102 141.113785,91.701050 
	C164.484756,84.891930 188.489502,80.143349 212.368225,75.245522 
	C222.637909,73.139084 233.307724,72.935486 243.809631,72.027916 
	C249.727112,71.516533 255.669617,71.142418 261.606506,71.042931 
	C271.287170,70.880699 272.508820,70.560410 272.822754,61.134174 
	C273.370697,44.682106 272.975372,28.198629 272.975372,11.815013 
	C262.724884,9.337653 256.985168,10.790214 247.584061,18.863014 
	C248.557388,13.105175 249.309158,8.657912 250.007721,4.525504 
	C269.532684,4.525504 288.368286,4.525504 307.872559,4.525504 
	C307.562134,9.581584 309.268494,14.343878 305.890778,20.379374 
	C305.134430,14.432559 302.466003,11.601953 298.048096,11.198199 
	C293.951447,10.823808 289.793640,11.118366 284.997742,11.118366 
	C284.997742,14.019152 284.997620,16.622408 284.997742,19.225664 
	C284.998505,33.888557 284.989227,48.551460 285.004883,63.214340 
	C285.011536,69.469254 285.551575,69.883850 291.947632,70.018867 
	C304.892426,70.292130 317.840240,70.544350 330.775543,71.077461 
	C335.051117,71.253677 339.292206,72.266258 343.509155,74.050369 
	C342.643127,74.362427 341.787476,74.911690 340.909515,74.949989 
	C331.804657,75.347069 322.681732,75.443893 313.591797,76.046120 
	C296.148346,77.201805 278.722107,78.618317 261.290680,79.952637 
	C252.741226,80.607071 244.196228,81.319763 235.194214,82.016464 
z"/>
<path fill="#CC0000" opacity="1.000000" stroke="none" 
	d="
M20.510292,65.982285 
	C22.719883,67.857964 24.674362,69.400368 27.247219,71.430786 
	C19.977776,71.430786 13.222664,71.430786 6.360483,71.430786 
	C6.386302,71.141624 6.304729,70.321640 6.487618,70.257668 
	C12.912193,68.010246 11.754223,62.172195 11.857770,57.590584 
	C12.222648,41.445923 11.956546,25.287691 12.066806,9.135543 
	C12.078053,7.488134 13.011180,5.847020 13.516514,4.202985 
	C15.033063,4.987857 16.876297,5.450778 18.015900,6.607136 
	C30.133455,18.902861 42.169937,31.279139 54.152493,43.706757 
	C56.858627,46.513401 59.270077,49.604179 63.000065,52.179054 
	C63.000065,44.129120 63.000423,36.079185 62.999905,28.029249 
	C62.999668,24.365707 62.974331,20.701986 63.002174,17.038666 
	C63.040947,11.937657 60.839077,8.206840 56.279587,5.438098 
	C62.717606,5.438098 69.155624,5.438098 76.656525,5.438098 
	C68.090660,11.218421 70.524567,19.647375 70.183174,26.943220 
	C69.545609,40.568417 70.051407,54.245152 69.932487,67.899147 
	C69.918213,69.537582 68.979263,71.167969 68.468903,72.802086 
	C66.954193,72.012344 65.133179,71.532631 63.971832,70.385231 
	C51.415424,57.979645 38.934242,45.497330 26.507498,32.961643 
	C24.218479,30.652555 22.264704,28.011141 20.156191,25.523117 
	C19.638262,25.627733 19.120335,25.732349 18.602406,25.836966 
	C19.153332,39.107651 19.704256,52.378338 20.510292,65.982285 
z"/>
<path fill="#CC0000" opacity="1.000000" stroke="none" 
	d="
M123.000153,23.011423 
	C122.999992,20.351955 123.009399,18.189747 122.997833,16.027655 
	C122.976456,12.029609 124.286354,7.170721 117.434013,7.602780 
	C117.007538,7.629670 116.509346,6.519212 115.570717,5.345365 
	C124.388466,5.345365 132.426498,5.345365 140.750793,5.345365 
	C140.584030,5.950840 140.516663,6.969084 140.258224,7.020137 
	C134.482925,8.161016 134.926743,12.448047 134.957535,16.811798 
	C135.066742,32.278759 134.553162,47.763554 135.126633,63.209995 
	C135.694031,78.493073 123.970734,90.837219 110.346771,95.014374 
	C111.480675,93.177887 111.884758,91.731499 112.829559,91.118469 
	C120.385735,86.215660 122.892441,78.839661 122.962395,70.410599 
	C123.092148,54.777615 123.000008,39.142792 123.000153,23.011423 
z"/>
<path fill="#CC0000" opacity="1.000000" stroke="none" 
	d="
M203.975952,8.099497 
	C202.718552,11.731266 201.205399,15.282413 201.119247,18.867849 
	C200.815430,31.510988 200.930130,44.166553 201.049393,56.815865 
	C201.080215,60.084831 201.532135,63.383129 202.170914,66.592255 
	C202.356476,67.524483 203.761719,68.374321 204.785950,68.938728 
	C206.073532,69.648262 207.544113,70.025734 208.628891,71.615143 
	C200.222687,71.615143 191.816483,71.615143 183.410278,71.615143 
	C183.309128,71.300713 183.207993,70.986275 183.106842,70.671844 
	C184.312653,70.102272 185.644226,69.699486 186.686691,68.913330 
	C187.614914,68.213310 188.870071,67.093552 188.876892,66.151077 
	C189.009399,47.791443 189.020782,29.430317 188.874222,11.070954 
	C188.866058,10.049127 187.408447,8.870876 186.385223,8.073873 
	C185.422028,7.323625 184.140900,6.981582 183.371475,5.647864 
	C191.414169,5.647864 199.456863,5.647864 207.499573,5.647864 
	C207.561722,6.090240 207.623871,6.532616 207.686020,6.974992 
	C206.582230,7.328195 205.478424,7.681398 203.975952,8.099497 
z"/>
<path fill="#CC0000" opacity="1.000000" stroke="none" 
	d="
M161.968750,125.927124 
	C161.016754,124.876785 160.110245,123.842445 160.075378,122.779510 
	C159.917709,117.972786 160.006454,113.157974 160.006454,108.104675 
	C167.311707,107.762611 167.830765,115.377426 172.467484,117.668930 
	C174.871780,115.130898 170.131927,109.343529 176.781708,107.672981 
	C176.781708,114.208908 176.781708,119.828186 176.781708,127.315918 
	C173.802124,125.187302 171.566040,123.950119 169.800903,122.229744 
	C167.954346,120.429985 166.560471,118.165764 164.849670,115.950394 
	C163.981125,119.511353 163.198364,122.720650 161.968750,125.927124 
z"/>
<path fill="#CE0000" opacity="1.000000" stroke="none" 
	d="
M202.811722,119.607620 
	C201.102036,121.586052 199.715729,123.754784 198.329437,125.923508 
	C196.921646,123.694618 195.369644,121.540977 194.154190,119.211716 
	C193.269287,117.515892 192.828659,115.588242 192.062027,113.398567 
	C193.549500,113.231049 194.935715,113.074936 196.436920,112.905876 
	C197.100418,115.250587 197.708160,117.398308 198.606003,120.571236 
	C199.813843,117.544838 200.680466,115.373390 201.560303,113.168846 
	C206.490402,112.090904 205.340363,117.082001 207.869736,118.881340 
	C210.059830,117.883438 208.205719,111.377640 214.576385,113.776352 
	C210.255096,117.149315 213.364288,124.966789 205.788788,126.305138 
	C204.805817,123.894722 203.970459,121.846321 202.811722,119.607620 
z"/>
<path fill="#CC0000" opacity="1.000000" stroke="none" 
	d="
M242.422287,158.384033 
	C241.929047,154.724518 241.692139,151.425095 241.437546,147.879379 
	C236.307541,149.085846 237.284042,152.389252 236.911911,155.210144 
	C236.721832,156.650833 235.630554,157.972610 234.946609,159.348145 
	C234.299240,159.134903 233.651871,158.921646 233.004501,158.708389 
	C233.004501,153.280258 232.903122,147.848709 233.086761,142.426804 
	C233.125229,141.291000 234.213623,140.190781 234.818207,139.074158 
	C235.545624,140.224701 236.437820,141.308029 236.943787,142.548859 
	C237.293732,143.407074 237.110489,144.482681 237.111801,144.505997 
	C240.174927,145.392700 244.381409,145.512817 244.931381,146.992249 
	C246.173538,150.333588 245.662933,154.346771 245.645584,158.085648 
	C245.644531,158.309723 243.712265,158.524841 242.422287,158.384033 
z"/>
<path fill="#CD0000" opacity="1.000000" stroke="none" 
	d="
M212.911118,145.018860 
	C217.239151,145.856247 219.208130,148.164810 218.907593,152.643723 
	C216.310303,152.880890 213.805069,153.109650 211.299820,153.338409 
	C211.238327,153.880630 211.176834,154.422867 211.115356,154.965088 
	C213.249603,155.244919 215.383850,155.524734 217.808105,155.842575 
	C218.427460,158.994339 216.028946,158.946823 213.622498,159.007889 
	C209.444244,159.113876 206.518158,157.519028 206.053726,153.090988 
	C205.563293,148.414917 207.607574,145.504471 212.911118,145.018860 
z"/>
<path fill="#CB0000" opacity="1.000000" stroke="none" 
	d="
M370.455688,113.575172 
	C371.816467,113.970695 373.738373,114.613914 373.833801,115.462601 
	C374.200745,118.724434 373.982483,122.052109 373.982483,125.269890 
	C361.942413,127.767700 359.867737,125.768883 361.458710,113.326675 
	C362.788635,113.326675 364.157288,113.326675 365.685120,113.326675 
	C365.932190,116.898506 366.162506,120.227898 366.424500,124.015327 
	C371.921204,121.419930 369.125183,117.080376 370.455688,113.575172 
z"/>
<path fill="#CE0000" opacity="1.000000" stroke="none" 
	d="
M189.780869,119.975037 
	C187.725616,119.988014 186.090256,119.988014 184.393356,119.988014 
	C184.250259,126.089714 189.902939,122.019211 191.941727,124.562126 
	C187.939346,127.380836 184.246857,128.109818 180.879456,124.280495 
	C178.091339,121.109924 177.958160,117.294807 181.121841,114.711563 
	C182.939987,113.226997 186.279556,112.984100 188.812119,113.268799 
	C190.006714,113.403099 191.083801,116.017052 191.834656,117.678894 
	C192.027893,118.106575 190.784302,119.183434 189.780869,119.975037 
z"/>
<path fill="#CD0000" opacity="1.000000" stroke="none" 
	d="
M174.883469,147.836594 
	C175.352768,156.277817 173.643967,159.240219 167.760361,158.830383 
	C165.496475,158.672699 161.866089,157.001816 161.503006,155.415176 
	C160.888901,152.731583 161.570160,148.906586 163.263794,146.833450 
	C164.415146,145.424103 168.251038,145.880844 170.833481,146.107254 
	C172.102600,146.218521 173.251419,147.702011 174.713867,148.248962 
	C174.973038,147.933395 174.883469,147.836594 174.883469,147.836594 
M165.027023,151.544250 
	C165.540634,153.204422 166.054245,154.864578 166.567856,156.524750 
	C167.050522,156.655090 167.533203,156.785416 168.015884,156.915756 
	C168.960144,155.234451 170.459564,153.613220 170.650345,151.850357 
	C170.774185,150.706024 168.989288,149.355087 168.059586,148.096695 
	C167.074066,148.992111 166.088547,149.887512 165.027023,151.544250 
z"/>
<path fill="#CC0000" opacity="1.000000" stroke="none" 
	d="
M202.005402,146.326828 
	C202.002380,150.584229 202.002380,154.378433 202.002380,158.389679 
	C198.715500,159.492844 196.787537,159.302246 196.969833,155.243240 
	C197.140060,151.452927 197.006226,147.648941 197.006226,143.943466 
	C195.115097,143.129700 193.480896,142.426498 191.846695,141.723282 
	C191.969391,141.297043 192.092087,140.870804 192.214783,140.444565 
	C197.019943,140.444565 201.825089,140.444565 208.181671,140.444565 
	C206.396332,141.794983 205.561066,142.333389 204.839233,142.995468 
	C203.850525,143.902328 202.947937,144.903107 202.005402,146.326828 
z"/>
<path fill="#CD0000" opacity="1.000000" stroke="none" 
	d="
M281.984650,125.046440 
	C280.584167,121.037933 279.190674,117.430984 277.711914,113.603317 
	C283.925659,111.719604 282.266235,117.616257 284.856110,119.236443 
	C286.210541,117.252296 287.803528,114.918671 289.396515,112.585037 
	C290.376221,121.993912 284.068481,132.104538 277.932648,132.610107 
	C279.381409,130.053741 280.686523,127.750870 281.984650,125.046440 
z"/>
<path fill="#CE0000" opacity="1.000000" stroke="none" 
	d="
M275.538574,146.360504 
	C279.385132,152.138168 278.092316,158.449249 273.214813,158.923965 
	C269.959717,159.240768 266.065399,159.523941 264.983429,155.388718 
	C264.341858,152.936691 264.078796,149.170532 265.461731,147.676971 
	C267.773773,145.180008 271.474945,143.540222 275.538574,146.360504 
M268.596436,151.045197 
	C269.099670,153.081375 269.602905,155.117554 270.106171,157.153732 
	C270.730011,157.139862 271.353882,157.125992 271.977753,157.112122 
	C272.641754,155.243530 273.619507,153.411545 273.843475,151.491623 
	C273.963684,150.461197 272.788391,149.279663 272.197693,148.166290 
	C271.132538,148.909943 270.067383,149.653580 268.596436,151.045197 
z"/>
<path fill="#CD0000" opacity="1.000000" stroke="none" 
	d="
M232.894852,113.596008 
	C240.663589,112.532600 241.618057,113.214401 241.720657,119.758888 
	C239.309280,119.900520 236.879547,120.043236 234.416443,120.187912 
	C233.990540,126.577240 240.778946,121.157547 241.906418,124.895172 
	C236.559387,127.865570 232.648468,127.507812 230.489761,123.878242 
	C228.602295,120.704742 229.578384,115.995880 232.894852,113.596008 
z"/>
<path fill="#CF0000" opacity="1.000000" stroke="none" 
	d="
M388.949677,113.635284 
	C396.569000,112.547287 397.921509,113.429565 398.747833,119.885727 
	C396.099792,119.885727 393.494019,119.885727 390.888245,119.885727 
	C390.709625,120.419365 390.530975,120.952995 390.352325,121.486633 
	C391.998047,122.113144 393.630219,122.779289 395.295319,123.349205 
	C396.110107,123.628075 396.986115,123.727997 397.834412,123.908905 
	C397.207581,124.625183 396.710541,125.561028 395.932251,126.021034 
	C391.796783,128.465286 388.630432,126.050789 386.760437,122.993698 
	C384.927124,119.996552 385.179657,116.353203 388.949677,113.635284 
z"/>
<path fill="#CB0000" opacity="1.000000" stroke="none" 
	d="
M286.438904,151.292114 
	C287.190216,147.115280 289.674255,145.132278 293.302948,145.097992 
	C296.558655,145.067230 299.916260,146.337570 299.900208,150.131134 
	C299.888916,152.802643 298.982056,156.287643 297.151703,157.967316 
	C293.101715,161.683960 288.250336,158.655075 286.438904,151.292114 
M291.056732,153.856369 
	C291.800262,154.850327 292.543762,155.844269 293.287262,156.838226 
	C293.863129,156.796524 294.438995,156.754822 295.014832,156.713135 
	C295.209747,154.220200 295.517578,151.725601 295.481079,149.236084 
	C295.475403,148.850494 293.892456,148.488052 293.038910,148.114899 
	C292.364075,149.767136 291.689209,151.419373 291.056732,153.856369 
z"/>
<path fill="#CC0000" opacity="1.000000" stroke="none" 
	d="
M252.562393,158.395874 
	C249.953232,159.395706 248.897141,158.604080 248.979675,156.078964 
	C249.093277,152.602692 249.008133,149.119919 249.008133,145.687958 
	C261.433563,143.906738 262.884155,145.380737 261.525848,160.060425 
	C259.853638,158.248260 258.527863,157.389984 258.115967,156.212112 
	C257.648651,154.875687 258.309326,153.162796 257.906189,151.780853 
	C257.514648,150.438675 256.396637,149.308411 255.597641,148.085098 
	C254.734680,149.242920 253.401093,150.296417 253.115967,151.582367 
	C252.656586,153.654358 252.888611,155.879639 252.562393,158.395874 
z"/>
<path fill="#CC0000" opacity="1.000000" stroke="none" 
	d="
M274.347351,123.314278 
	C277.373779,124.675171 277.520477,125.568291 275.807434,125.738678 
	C272.794769,126.038330 268.281769,126.491432 266.969818,124.838379 
	C265.286743,122.717682 265.095367,118.099342 266.291443,115.486404 
	C267.042480,113.845764 271.593384,113.221756 274.294739,113.507881 
	C275.604767,113.646645 276.582245,116.925140 278.220551,119.622200 
	C274.228821,119.899635 271.818634,120.067154 269.408447,120.234665 
	C269.230011,120.722382 269.051575,121.210098 268.873138,121.697815 
	C270.585510,122.297394 272.297882,122.896980 274.347351,123.314278 
z"/>
<path fill="#CC0000" opacity="1.000000" stroke="none" 
	d="
M315.255371,113.009720 
	C319.456543,112.784355 321.157013,114.599640 321.014038,118.357918 
	C320.926514,120.658928 320.997833,122.965996 320.997833,125.270340 
	C320.572205,125.602631 320.146576,125.934914 319.720947,126.267197 
	C318.816650,125.247978 317.692932,124.342522 317.084961,123.169708 
	C316.677185,122.383018 317.276825,121.107857 316.935181,120.245628 
	C316.353333,118.777313 315.385437,117.461990 314.579712,116.082382 
	C313.720856,117.408501 312.642365,118.648643 312.078125,120.090096 
	C311.682770,121.100128 312.333923,122.542946 311.892395,123.505722 
	C311.377930,124.627502 310.182007,125.436760 309.281830,126.381645 
	C308.925690,126.055016 308.569519,125.728378 308.213379,125.401749 
	C308.213379,121.463402 308.213379,117.525055 308.213379,113.341042 
	C310.496246,113.228767 312.670044,113.121857 315.255371,113.009720 
z"/>
<path fill="#CD0000" opacity="1.000000" stroke="none" 
	d="
M175.020386,147.979309 
	C176.154984,141.785431 179.927780,138.872437 185.094910,140.758362 
	C183.989120,141.710526 183.044724,142.523727 182.100327,143.336929 
	C183.042587,144.248123 183.984848,145.159302 184.927124,146.070480 
	C184.460983,146.055069 183.994843,146.039642 183.528702,146.024216 
	C183.016388,149.321274 182.638000,152.648026 181.917664,155.899002 
	C181.671997,157.007797 180.566818,157.926132 179.854340,158.931503 
	C179.239319,157.992752 178.405640,157.129181 178.051987,156.100571 
	C177.145065,153.462585 176.451370,150.751266 175.277954,147.952942 
	C174.883469,147.836594 174.973038,147.933395 175.020386,147.979309 
z"/>
<path fill="#CC0000" opacity="1.000000" stroke="none" 
	d="
M223.000458,115.101730 
	C223.930222,112.435204 220.733582,107.954529 226.974686,108.131760 
	C226.974686,114.318466 227.166763,120.237671 226.907150,126.136993 
	C226.734207,130.066605 225.202606,130.968811 221.988998,130.451752 
	C222.330307,125.433105 222.665375,120.506149 223.000458,115.101730 
z"/>
<path fill="#CC0000" opacity="1.000000" stroke="none" 
	d="
M356.017883,117.282318 
	C356.083618,120.730743 354.974060,124.373589 360.466919,124.439240 
	C357.842773,128.196121 355.480835,127.112511 353.352325,125.403030 
	C351.806854,124.161766 350.907135,112.442024 352.143280,110.972893 
	C352.830322,110.156326 353.900085,109.661766 354.570312,109.183952 
	C356.296448,110.989670 357.846375,112.611061 359.305328,114.137291 
	C358.408264,114.883720 357.218445,115.873734 356.017883,117.282318 
z"/>
<path fill="#CC0000" opacity="1.000000" stroke="none" 
	d="
M221.821289,157.240723 
	C218.962692,151.456619 220.718018,146.339951 225.793701,145.206268 
	C228.096497,144.691910 230.875641,144.374268 230.849792,146.887421 
	C228.056931,148.861053 224.898300,149.928146 224.496307,151.641891 
	C223.842850,154.427643 226.058014,156.320831 229.384796,156.102997 
	C230.181702,156.050812 231.025681,156.718185 231.847992,157.054642 
	C231.434982,157.787643 231.021973,158.520660 230.608963,159.253662 
	C227.774841,158.678818 224.940720,158.103989 221.821289,157.240723 
z"/>
<path fill="#CE0000" opacity="1.000000" stroke="none" 
	d="
M260.262390,115.913803 
	C260.659180,117.090607 261.645905,118.299255 262.032074,119.676323 
	C262.487946,121.302055 263.169434,123.654022 262.402283,124.638252 
	C261.387695,125.939926 259.081604,126.697601 257.294159,126.768372 
	C256.140259,126.814049 254.921051,125.209587 254.378098,123.425934 
	C255.827911,123.543716 257.277740,123.661491 260.123444,123.892670 
	C257.782806,121.427788 256.218872,120.023232 254.983536,118.372726 
	C254.407410,117.602943 253.995743,115.666191 254.320251,115.444344 
	C255.838562,114.406395 257.578796,113.515007 259.362061,113.110596 
	C260.405518,112.873955 261.678650,113.649803 262.848450,113.970169 
	C262.094482,114.653503 261.340515,115.336838 260.262390,115.913803 
z"/>
<path fill="#CD0000" opacity="1.000000" stroke="none" 
	d="
M376.842834,115.727989 
	C375.847412,112.133789 377.070251,110.147285 379.498810,109.306404 
	C381.276031,111.149445 382.752167,112.680237 384.130920,114.110062 
	C379.441589,116.792938 379.477875,121.380531 384.784119,125.186172 
	C381.351288,127.930450 377.649109,126.763496 377.061310,122.613892 
	C376.760468,120.490181 376.965210,118.294853 376.842834,115.727989 
z"/>
<path fill="#CC0000" opacity="1.000000" stroke="none" 
	d="
M335.487549,124.054138 
	C334.882477,120.648956 334.139008,117.521507 334.384216,114.473602 
	C334.544159,112.485649 336.140167,110.613228 337.018066,108.840065 
	C339.289185,111.173195 340.774231,112.698807 342.149872,114.111992 
	C337.443817,116.740349 337.480560,121.351021 342.944916,125.319954 
	C340.040833,128.316605 337.831146,126.957840 335.487549,124.054138 
z"/>
<path fill="#CE0000" opacity="1.000000" stroke="none" 
	d="
M330.499207,115.710800 
	C329.492554,115.871002 328.843872,116.151619 328.195190,116.432236 
	C329.018097,117.234528 330.128021,117.897545 330.600006,118.870140 
	C331.408081,120.535362 332.808380,123.063583 332.164520,124.017342 
	C331.161346,125.503326 328.729401,126.280403 326.758057,126.751099 
	C325.747253,126.992424 324.422455,125.918602 323.034149,124.413803 
	C324.901703,123.937225 326.769257,123.460648 329.310913,122.812050 
	C327.624695,121.552795 325.960419,120.938156 325.510651,119.830399 
	C324.791809,118.059967 324.879486,115.962059 324.626221,114.002594 
	C326.976868,113.835510 329.327515,113.668427 331.678162,113.501343 
	C331.404480,114.277969 331.130829,115.054596 330.499207,115.710800 
z"/>
<path fill="#CC0000" opacity="1.000000" stroke="none" 
	d="
M280.000122,144.220398 
	C280.286499,141.623672 278.897827,138.207870 283.980988,139.438812 
	C283.980988,145.052368 284.069000,150.785400 283.882996,156.509521 
	C283.856110,157.336838 282.513458,158.121384 281.779694,158.925720 
	C281.193451,158.138855 280.138123,157.373718 280.100494,156.561432 
	C279.917480,152.612320 280.006989,148.650574 280.000122,144.220398 
z"/>
<path fill="#CC0000" opacity="1.000000" stroke="none" 
	d="
M305.000000,116.997940 
	C304.994537,119.456093 305.274933,121.493591 304.875244,123.387566 
	C304.639771,124.503197 303.325378,125.391121 302.496216,126.381454 
	C302.084900,126.100334 301.673584,125.819206 301.262268,125.538086 
	C301.262268,119.986420 301.262268,114.434746 301.262268,107.005394 
	C303.057404,108.732147 304.584625,109.518410 304.858032,110.616806 
	C305.321869,112.479843 304.994690,114.539795 305.000000,116.997940 
z"/>
<path fill="#CC0000" opacity="1.000000" stroke="none" 
	d="
M252.931458,114.547989 
	C248.928024,116.579262 247.267181,119.453354 247.832977,123.853630 
	C247.925217,124.571060 246.151413,125.528442 244.271149,127.274910 
	C244.271149,121.521072 244.271149,117.442108 244.271149,112.702370 
	C247.312439,113.223000 250.121307,113.703835 252.931458,114.547989 
z"/>
<path fill="#CC0000" opacity="1.000000" stroke="none" 
	d="
M348.999695,120.876541 
	C348.893219,122.632286 349.094849,124.085594 348.548645,125.158058 
	C348.282104,125.681458 346.621765,125.495010 345.592285,125.629860 
	C345.553131,121.600670 345.514008,117.571487 345.474915,113.542297 
	C346.505280,113.562538 348.033234,113.182449 348.448029,113.697968 
	C349.051941,114.448570 348.911499,115.840424 348.982605,116.965546 
	C349.055054,118.111923 348.999451,119.266380 348.999695,120.876541 
z"/>
<path fill="#000000" opacity="1.000000" stroke="none" 
	d="
M311.300781,154.286743 
	C309.759521,154.802689 308.438782,154.988251 307.118011,155.173828 
	C307.001038,153.336838 306.665039,151.472198 306.891388,149.678528 
	C306.965881,149.088074 308.495056,148.681168 309.359039,148.190308 
	C310.079803,150.112320 310.800568,152.034348 311.300781,154.286743 
z"/>
<path fill="#000000" opacity="1.000000" stroke="none" 
	d="
M165.065018,151.163574 
	C166.088547,149.887512 167.074066,148.992111 168.059601,148.096710 
	C168.989288,149.355087 170.774185,150.706024 170.650345,151.850357 
	C170.459564,153.613220 168.960144,155.234451 168.015884,156.915756 
	C167.533203,156.785416 167.050522,156.655090 166.567856,156.524750 
	C166.054245,154.864578 165.540634,153.204422 165.065018,151.163574 
z"/>
<path fill="#000000" opacity="1.000000" stroke="none" 
	d="
M268.799316,150.721207 
	C270.067383,149.653580 271.132538,148.909943 272.197693,148.166290 
	C272.788391,149.279663 273.963684,150.461197 273.843475,151.491623 
	C273.619507,153.411545 272.641754,155.243530 271.977753,157.112122 
	C271.353882,157.125992 270.730011,157.139862 270.106171,157.153732 
	C269.602905,155.117554 269.099670,153.081375 268.799316,150.721207 
z"/>
<path fill="#000000" opacity="1.000000" stroke="none" 
	d="
M291.035522,153.463989 
	C291.689209,151.419373 292.364075,149.767136 293.038910,148.114899 
	C293.892456,148.488052 295.475403,148.850494 295.481079,149.236084 
	C295.517578,151.725601 295.209747,154.220200 295.014832,156.713135 
	C294.438995,156.754822 293.863129,156.796524 293.287262,156.838226 
	C292.543762,155.844269 291.800262,154.850327 291.035522,153.463989 
z"/>
</svg>