<svg version="1.1" id="Layer_1" xmlns="http://www.w3.org/2000/svg" xmlns:xlink="http://www.w3.org/1999/xlink" x="0px" y="0px"
	 width="100%" viewBox="0 0 576 576" enable-background="new 0 0 576 576" xml:space="preserve">
<path fill="#000000" opacity="1.000000" stroke="none" 
	d="
M1.000000,448.428467 
	C9.137120,445.543304 16.581285,441.510773 24.760754,438.133453 
	C21.375219,429.135010 17.023903,421.036987 14.738230,412.165833 
	C12.505168,403.498840 10.969560,394.768616 11.119705,385.457184 
	C14.461456,385.599274 15.888654,387.869537 17.685131,389.374420 
	C35.764782,404.519135 56.397606,413.230560 80.133476,411.437256 
	C98.819031,410.025513 116.982300,411.901764 135.121536,415.730377 
	C143.929489,417.589447 152.399200,420.526855 161.524612,424.442566 
	C159.880325,420.290039 157.353851,417.676819 155.298889,414.837585 
	C122.358643,369.325867 99.549438,319.229462 86.754524,264.515228 
	C80.238304,236.650208 77.600822,208.406296 78.093651,179.878632 
	C78.268211,169.773941 78.593460,159.574051 80.674828,149.607498 
	C82.940636,138.757751 91.384743,133.085175 102.299706,134.428528 
	C110.711975,135.463882 118.306755,138.935196 125.961273,142.112976 
	C129.791351,143.703049 132.186935,142.768631 134.703232,140.042648 
	C140.324493,133.952927 140.623581,128.173859 135.622177,121.673561 
	C133.389252,118.771423 131.174911,115.827202 129.262405,112.711617 
	C123.897240,103.971420 125.361366,97.306366 134.008087,92.000488 
	C151.935028,81.000008 170.696732,71.664612 190.335876,64.081230 
	C224.498749,50.889709 260.052399,46.643337 296.282654,48.942390 
	C329.972290,51.080227 362.013702,60.653423 392.956268,73.937096 
	C405.827118,79.462570 418.242432,85.910034 430.459106,92.748016 
	C433.676544,94.548889 436.691437,96.612976 439.203064,99.337257 
	C444.664886,105.261528 444.574493,111.274933 438.852875,116.924187 
	C436.236542,119.507446 433.293793,121.697800 430.000977,123.380791 
	C427.561157,124.627777 427.152802,126.325989 428.609772,128.677429 
	C430.206116,131.253876 432.170288,133.480087 434.329193,135.582108 
	C436.194977,137.398743 438.118652,137.877975 440.665527,136.930527 
	C445.962555,134.960022 451.271942,132.928879 456.726776,131.495224 
	C469.862000,128.043030 478.315918,132.980408 482.365082,146.006058 
	C484.106964,151.609482 484.719025,157.410736 485.172882,163.190979 
	C490.465607,230.601700 477.584320,294.541290 449.209808,355.771240 
	C436.234131,383.771729 419.379730,409.233673 401.744385,434.317108 
	C399.843445,437.020905 397.900299,439.695007 395.675232,442.804138 
	C398.160400,443.542542 399.964691,442.707001 401.692719,442.118256 
	C410.852631,438.997528 419.710724,435.204773 428.092499,430.310608 
	C448.825897,418.204254 470.964630,410.796936 495.140045,409.542511 
	C513.477844,408.590973 531.580627,406.136108 548.282898,397.551453 
	C554.795471,394.204163 561.059875,390.553070 566.413574,384.985199 
	C568.984070,388.371552 569.052002,391.727814 569.263611,394.876495 
	C570.208313,408.935211 567.081726,422.031677 559.021606,433.693237 
	C556.575012,437.232941 556.741760,439.824677 559.878235,442.723053 
	C565.501465,447.919403 570.926880,453.329834 576.717529,458.825378 
	C577.000000,460.388885 577.000000,461.777802 576.691956,463.742249 
	C551.915649,478.490326 524.958923,484.915131 497.419006,489.238922 
	C483.580566,491.411591 469.747131,493.351776 457.095215,499.773438 
	C446.560608,505.120392 436.399292,511.238708 425.706696,516.231689 
	C393.250580,531.387207 360.612579,536.254639 328.085602,516.253479 
	C325.923309,514.923828 324.395264,515.645264 322.712189,516.998962 
	C304.096771,531.971497 271.303711,532.820557 252.338791,517.415161 
	C249.739609,515.303833 247.523865,515.294739 244.789871,517.319885 
	C225.776657,531.402954 204.705307,531.926025 182.904114,526.115295 
	C164.244461,521.141846 147.695786,511.254486 130.528030,502.840240 
	C117.051094,496.234985 103.456947,489.766998 88.399086,487.905945 
	C78.358459,486.664948 68.181282,486.587372 58.245293,484.318237 
	C36.438622,479.338226 15.238552,473.252716 1.000000,454.000000 
	C1.000000,452.285645 1.000000,450.571289 1.000000,448.428467 
M393.693054,274.309906 
	C394.001312,273.187164 394.332642,272.070190 394.614380,270.940826 
	C399.411591,251.712418 402.470734,232.231628 403.862366,212.442001 
	C404.762024,199.648819 405.197754,186.884705 404.669281,174.078110 
	C404.506927,170.143158 404.247375,167.621750 398.618500,167.657990 
	C384.611511,167.748199 377.412048,156.664597 382.102448,143.327744 
	C383.006104,140.758255 384.602112,138.432266 385.871613,136.007553 
	C310.122742,95.393547 226.705170,101.223160 177.254227,141.364243 
	C184.849564,146.964859 187.954651,154.605988 185.231522,162.570831 
	C180.954315,175.081223 171.115265,176.025009 159.426254,173.337402 
	C158.599060,218.644974 166.032013,261.753937 182.535065,303.187408 
	C197.523712,340.818695 219.729736,373.980347 245.955734,404.548584 
	C250.751480,401.344940 254.660385,398.121216 259.071564,395.891083 
	C280.168823,385.224823 300.868378,386.312225 320.617859,399.280792 
	C324.694305,401.957611 327.023712,401.681732 329.474579,397.832397 
	C330.275299,396.574768 331.341766,395.488312 332.262909,394.305084 
	C360.191498,358.429962 381.367004,319.081390 393.693054,274.309906 
M374.090973,449.612488 
	C382.879517,439.580933 390.880188,428.959503 398.640350,418.104340 
	C437.564636,363.656036 463.115509,303.902496 471.953339,237.226608 
	C475.673737,209.158569 475.596985,181.159576 472.456177,153.137466 
	C471.056610,140.650604 466.217773,138.010452 454.421234,142.331512 
	C443.950653,146.166901 433.530334,150.143875 423.139069,154.189911 
	C416.272614,156.863510 415.075165,158.416580 415.377045,165.744095 
	C416.234467,186.559586 415.780182,207.291550 413.460419,228.028748 
	C409.653564,262.059509 400.329651,294.491638 386.688904,325.813843 
	C373.929443,355.112396 355.488647,380.766571 335.935852,405.716858 
	C333.433716,408.909698 332.813873,411.517700 335.181213,415.072174 
	C338.362976,419.849518 339.907043,425.300690 340.311737,431.061096 
	C341.398468,446.530396 341.188446,462.017365 341.060425,477.505646 
	C341.045990,479.247498 340.419189,481.155975 341.969940,482.933167 
	C342.531830,482.706299 343.215393,482.604248 343.662903,482.224243 
	C354.889313,472.691620 364.644501,461.778107 374.090973,449.612488 
M130.229797,351.326721 
	C156.592667,401.832825 190.099411,446.814453 232.787628,484.886505 
	C233.653595,470.137177 233.871185,455.848633 233.572327,441.570892 
	C233.391815,432.946472 234.379288,424.626770 237.614441,416.649780 
	C238.978760,413.285675 238.257294,410.928192 235.887695,408.157837 
	C208.648743,376.312286 185.665680,341.859192 170.787842,302.349701 
	C159.403763,272.118164 152.305130,240.989822 149.570862,208.826553 
	C148.442810,195.557220 147.609543,182.294861 148.655594,168.974747 
	C149.039825,164.081909 146.810745,160.479034 142.274017,158.741623 
	C130.159500,154.102142 118.090866,149.288177 105.769241,145.261963 
	C96.404213,142.201843 92.156700,145.145737 91.309090,154.984695 
	C89.089561,180.748596 88.814369,206.583572 92.623688,232.192551 
	C98.782471,273.596283 111.050079,313.190948 130.229797,351.326721 
M211.044159,479.466766 
	C201.577515,470.574158 192.178726,461.625092 183.702133,451.743988 
	C177.881760,444.959259 170.719360,439.769501 162.696121,435.911133 
	C138.326324,424.191742 112.556114,419.623108 85.624580,421.173706 
	C65.772682,422.316681 46.853916,419.031494 29.303125,409.235840 
	C27.780855,408.386200 26.258408,407.128632 23.902702,407.760681 
	C23.901291,410.065308 24.585979,412.220886 25.338757,414.397186 
	C28.293203,422.938721 32.526478,430.872437 37.017254,438.659149 
	C38.990410,442.080536 38.659275,443.846283 34.693817,445.295471 
	C27.892519,447.781006 21.283941,450.793915 14.511985,453.619843 
	C15.873871,456.734192 18.164747,457.904633 20.173092,459.276062 
	C33.814617,468.591370 49.364445,472.843903 65.339264,475.566833 
	C73.829384,477.013977 82.589172,476.872345 91.084038,478.299957 
	C107.644707,481.083069 122.949745,487.570587 137.751495,495.357758 
	C148.797684,501.169159 159.711792,507.311127 171.367020,511.833374 
	C193.293793,520.341003 215.143951,520.899902 236.593994,510.111023 
	C241.720657,507.532440 242.056580,504.247009 237.098755,501.430756 
	C227.218460,495.818329 219.813919,487.409546 211.044159,479.466766 
M302.281555,83.498039 
	C301.964752,86.512100 302.889008,89.785820 299.754517,93.499664 
	C297.609650,88.469025 293.385498,88.310181 289.151306,87.829796 
	C287.536713,87.646622 286.671570,85.768532 285.707581,84.390289 
	C284.918823,83.262589 284.989410,81.366570 282.710205,81.119843 
	C282.364471,84.698845 280.955414,87.204582 276.718323,85.984825 
	C272.517090,84.775391 269.915985,81.158173 270.788086,77.696358 
	C273.258057,77.341499 273.726288,81.716187 276.513092,80.303772 
	C278.151703,79.180252 276.455170,77.179070 277.931824,76.154495 
	C281.210632,74.463829 284.772217,76.709106 289.026093,76.220909 
	C286.701447,74.011658 285.002228,74.730774 283.428894,74.774612 
	C279.433655,74.885941 275.441193,75.167923 271.446289,75.196091 
	C268.655853,75.215782 266.243134,74.485405 266.015869,70.635857 
	C278.974518,68.059372 291.810181,69.745071 305.479706,69.578644 
	C302.332916,65.688362 295.895874,66.206223 297.628143,60.036129 
	C296.132233,59.775135 295.008911,59.450375 293.873444,59.399899 
	C266.273834,58.173000 239.145630,60.399590 212.361389,67.999573 
	C186.915558,75.219772 163.856705,87.249069 141.067520,100.116447 
	C137.258575,102.267082 136.358063,104.864624 139.011078,108.633194 
	C144.914505,117.018936 151.665543,124.486061 160.456146,129.984482 
	C165.359116,133.051239 169.557053,133.095398 174.629883,129.599457 
	C216.708923,100.600822 263.388519,92.630135 313.203888,100.414734 
	C340.550385,104.688148 366.450470,113.601295 390.886688,126.640892 
	C394.240967,128.430801 397.376465,128.817780 400.806580,126.966484 
	C409.304626,122.379921 418.101318,118.335693 426.205078,113.035469 
	C433.172241,108.478630 433.267487,107.132210 426.337616,102.812340 
	C410.158844,92.726974 392.659851,85.345795 375.058716,78.199959 
	C373.675995,77.638588 371.806732,76.760826 371.177155,78.686378 
	C370.210205,81.644035 367.963776,80.876076 365.560791,80.615990 
	C366.947205,84.713043 370.227295,85.592468 373.008850,86.510452 
	C385.177734,90.526505 395.766663,97.476227 406.602386,104.000633 
	C408.924438,105.398766 409.939728,107.126114 408.911926,109.764641 
	C399.933228,110.115868 401.329041,120.839767 395.240295,123.824684 
	C391.829651,122.428741 393.522949,118.572968 390.767181,116.754478 
	C385.204132,113.083466 384.614594,109.759483 387.378784,103.747520 
	C388.829376,102.891197 390.783203,104.480827 392.181458,102.443146 
	C390.574615,99.813538 388.292511,98.342644 385.008942,97.959076 
	C382.600983,103.200104 380.272522,108.268097 377.948212,113.327110 
	C373.422028,111.438652 374.838623,107.993774 375.056915,105.116295 
	C372.213989,102.734161 366.856049,106.861504 365.719238,100.711754 
	C364.868988,96.112106 371.089020,95.203239 370.020721,90.885597 
	C364.625610,87.467667 364.176239,87.688515 362.281830,93.534866 
	C361.104675,97.167747 361.098633,101.392899 357.805237,104.197403 
	C353.971405,102.167572 354.323364,99.270721 355.389679,96.288773 
	C356.172913,94.098465 357.260315,92.018333 358.083710,89.840546 
	C358.745026,88.091492 359.361176,86.217110 356.580627,85.547531 
	C354.119781,86.859276 354.618439,89.619766 353.581329,91.603394 
	C352.762024,93.170410 352.606903,95.486206 350.218079,95.340164 
	C347.916840,95.199493 346.967224,93.241478 346.277740,91.304649 
	C345.630524,89.486671 345.203003,87.759216 347.737579,86.856812 
	C349.719147,86.151306 350.418152,84.659088 348.749268,83.072121 
	C347.563049,81.944099 345.891907,81.285149 344.144135,81.619377 
	C342.477936,81.938011 342.526093,83.462334 342.157104,84.731995 
	C340.851227,89.225517 340.930573,94.146935 338.395386,98.370567 
	C333.821350,96.688049 334.637207,93.593025 335.462677,90.406136 
	C335.789032,89.146049 336.103180,87.648697 334.738281,86.755890 
	C333.728485,86.095352 332.479645,86.092804 331.390717,86.690315 
	C329.942963,87.484726 330.252289,88.895966 330.246277,90.231003 
	C330.237244,92.228928 332.347168,94.230377 330.332703,96.265137 
	C327.273529,94.618149 324.406128,88.486473 325.298431,84.931702 
	C326.656830,79.520164 331.533630,81.259758 335.226837,80.177261 
	C332.286591,79.158142 329.265503,78.595879 326.321411,77.761772 
	C322.800568,76.764252 321.439697,77.993927 321.286743,81.583488 
	C321.099487,85.977837 320.594299,90.376007 319.177216,94.665688 
	C315.125732,93.683548 314.315826,91.384216 315.005127,88.134705 
	C315.487885,85.859093 315.850342,83.556549 316.216522,81.258064 
	C316.494873,79.510910 317.416687,77.231407 314.910767,76.632332 
	C311.777893,75.883354 312.159088,78.849518 311.743530,80.570259 
	C310.713135,84.836967 311.851837,89.503441 309.556000,93.654778 
	C306.459503,92.954391 305.204712,91.216339 305.570984,88.220657 
	C305.893280,85.585022 306.120117,82.936569 306.335510,80.289421 
	C306.486420,78.434990 307.682037,75.847694 304.584778,75.554710 
	C301.719879,75.283707 302.486481,77.907288 302.309143,79.579094 
	C302.204254,80.567871 302.285950,81.576439 302.281555,83.498039 
M511.599915,435.318054 
	C515.570374,437.429352 514.831604,433.345184 515.927551,431.884003 
	C517.121704,430.291870 518.268921,429.065063 520.416931,429.518280 
	C521.790955,429.808289 522.115295,430.815918 522.322021,432.081879 
	C522.736450,434.620270 520.266602,434.050232 518.786499,435.366089 
	C522.927612,436.222351 525.017151,438.783539 526.135864,442.337524 
	C526.550659,443.655518 527.402588,444.872437 529.062866,444.316406 
	C530.558594,443.815552 530.739624,442.396362 530.767029,441.013824 
	C530.816406,438.526367 529.558655,437.454803 527.108154,437.301178 
	C525.288757,437.187103 525.131531,435.704498 525.476074,434.317993 
	C525.823242,432.920959 527.034424,432.677277 528.270691,432.870178 
	C530.626709,433.237854 532.147461,434.672150 532.969910,436.861603 
	C533.496277,438.262939 533.883484,439.720154 534.467896,441.095032 
	C534.917969,442.153961 535.496643,443.385315 536.930237,443.148682 
	C538.557495,442.880005 538.877563,441.472992 538.914795,440.093964 
	C538.970337,438.041229 538.243286,436.549988 535.934204,436.222015 
	C532.869934,435.786804 533.384827,433.895081 534.014404,431.971558 
	C535.827393,431.328247 537.277405,431.718994 538.529846,432.609253 
	C542.294495,435.285156 542.419678,439.311066 542.332642,443.371948 
	C542.254089,447.040894 541.162598,450.246399 537.964417,452.411102 
	C537.101562,452.995178 536.153442,453.182251 535.111572,452.908508 
	C530.866394,451.793274 527.148682,453.807861 523.580750,455.397186 
	C520.782593,456.643646 517.849487,455.906677 515.020996,457.236511 
	C511.620972,458.834991 509.576691,455.927948 508.268524,452.431305 
	C506.821350,456.332092 506.496704,460.419373 501.658508,460.153381 
	C497.096466,459.902588 492.467590,461.838440 489.158691,463.544159 
	C483.977173,466.215179 480.554291,466.418793 476.649170,462.481384 
	C473.311188,470.518646 468.808624,474.278473 460.926208,468.146606 
	C460.249664,469.524963 458.954895,469.837738 457.525146,470.565582 
	C464.561615,474.140900 464.909576,479.739594 462.644592,485.309387 
	C496.376770,477.996033 531.454834,475.389862 563.518494,461.138977 
	C563.018127,458.089264 561.204468,457.001648 559.800476,455.654297 
	C555.718201,451.736725 551.825867,447.556061 547.369629,444.111755 
	C542.972900,440.713440 543.944031,438.084412 546.799011,434.272949 
	C553.690247,425.073151 557.830322,414.669922 559.102234,402.577515 
	C554.379456,405.099426 550.289185,407.637726 545.924255,409.548615 
	C532.317932,415.505219 517.812683,417.988586 503.159790,418.156677 
	C484.130554,418.374969 466.199921,422.217255 449.198669,430.645447 
	C446.065338,432.198761 442.867218,433.633850 439.805847,435.317719 
	C424.596100,443.683502 409.017975,451.157867 391.999908,455.132568 
	C382.545837,457.340607 377.926575,464.629913 372.719025,472.568146 
	C380.885468,472.073303 384.327271,476.477966 386.011963,483.898621 
	C388.890839,479.278198 393.093689,478.202057 397.369629,476.342194 
	C396.462616,476.256378 396.129608,476.165894 395.812103,476.204102 
	C393.141998,476.525696 391.383545,475.214478 391.386871,472.702026 
	C391.390259,470.138458 393.517609,470.898438 395.153412,471.131561 
	C396.962372,471.389282 397.180084,469.748779 397.836853,468.674042 
	C398.584778,467.450104 399.526459,466.433472 401.058441,467.084015 
	C402.633545,467.752930 402.549072,469.377808 402.079498,470.543152 
	C400.658264,474.070190 402.593597,476.772400 403.666351,479.740997 
	C410.815002,477.457672 410.816559,477.457306 409.147705,470.355804 
	C408.621460,468.116394 409.606049,466.489624 411.247772,465.124359 
	C415.062439,461.951904 420.238220,462.286957 423.955719,465.809998 
	C424.870575,466.677002 425.146515,468.464325 427.103699,468.525909 
	C425.254517,463.257202 425.172729,462.712830 427.938965,461.652802 
	C433.526978,459.511505 439.183838,457.478119 444.947144,455.889557 
	C449.282104,454.694672 452.443695,456.417603 453.405029,461.182129 
	C453.631775,462.306030 454.017242,463.397919 454.487793,465.064240 
	C455.990234,463.418243 457.852539,464.987396 459.246582,463.777985 
	C459.548615,459.332581 457.833649,453.662903 462.640991,451.570465 
	C466.188629,450.026306 471.052460,445.878906 475.145416,452.271454 
	C476.758209,448.026337 480.879700,446.053589 482.320557,443.348175 
	C484.465515,439.320618 486.172760,439.382324 489.460114,440.918579 
	C490.078827,439.651611 490.530945,438.602905 491.085999,437.611847 
	C492.938934,434.303406 495.207886,433.957794 496.498413,436.636169 
	C497.859863,439.461700 494.715942,439.677216 493.884766,441.493225 
	C496.315765,443.107819 498.032166,445.276855 499.298065,447.867157 
	C500.015778,449.335724 500.951874,450.992706 503.062134,450.359406 
	C504.319885,449.981964 504.696838,448.770844 504.720306,447.538788 
	C504.757904,445.563019 504.327820,443.791931 501.999634,443.451569 
	C500.624634,443.250519 499.287445,443.211456 499.078766,441.423279 
	C498.945740,440.283173 499.422211,439.459656 500.473602,439.068604 
	C502.044525,438.484314 503.414093,438.994446 504.616180,440.047729 
	C506.488617,441.688385 507.050842,444.188049 508.416260,446.549377 
	C509.331940,444.098022 510.748749,442.863739 512.788025,442.175293 
	C516.785339,440.825714 517.399841,445.978607 520.536194,446.312805 
	C522.262085,444.402374 522.049805,442.493713 520.802246,440.753571 
	C519.464050,438.886871 517.643921,439.422363 515.844910,440.166931 
	C514.472656,440.734863 513.089111,441.454132 511.522919,441.135101 
	C509.550110,440.733307 508.110718,439.544647 507.806030,437.569366 
	C507.433228,435.152344 509.104065,434.861816 511.599915,435.318054 
M300.267944,468.401337 
	C297.761536,476.794098 292.002594,482.752441 285.347656,487.929352 
	C275.488098,495.599121 264.103973,500.063538 252.028931,502.886597 
	C252.347672,505.237274 254.009064,506.241272 255.324402,507.406433 
	C272.014435,522.190979 300.252991,522.496460 317.773346,508.629639 
	C327.715363,500.760864 330.203186,490.051605 330.574341,478.504822 
	C331.034271,464.196472 330.552521,449.883057 329.784424,435.571899 
	C329.424194,428.859924 327.572937,422.876831 324.382111,417.115631 
	C323.191528,414.965973 321.688965,413.880615 319.158508,414.293762 
	C312.205078,415.429108 305.569458,417.254639 299.566498,421.239716 
	C295.757874,423.768066 294.789368,426.101807 296.705109,430.657166 
	C301.682251,442.492035 304.411316,454.769043 300.267944,468.401337 
M253.497192,411.996765 
	C246.327759,419.041077 243.144867,427.567505 243.293381,437.628418 
	C243.509644,452.277985 243.364441,466.933136 243.332123,481.585846 
	C243.326569,484.098999 243.724228,486.526642 244.141586,488.995056 
	C244.650330,492.004089 245.956619,492.742401 248.941284,492.269104 
	C258.150909,490.808594 266.300964,486.713318 274.553375,482.731720 
	C277.823273,481.154083 278.749786,479.655396 277.557800,475.855957 
	C274.205963,465.171997 272.299072,454.253235 274.691559,442.971466 
	C278.556335,424.747101 288.213226,411.738373 306.829803,406.584229 
	C307.772949,406.323151 308.799591,406.073151 309.048615,404.874634 
	C298.588165,394.277496 269.598907,397.774994 253.497192,411.996765 
M432.628937,500.083496 
	C440.065155,496.192017 447.993347,493.220642 455.552765,488.487213 
	C452.807831,485.973877 453.587097,482.100708 450.063965,480.555176 
	C449.034576,480.103638 449.443665,478.073029 451.003998,477.368958 
	C452.649384,476.626495 454.315857,475.502014 456.195374,476.342987 
	C458.584930,477.412170 456.259949,479.902954 457.572235,481.921112 
	C460.348358,479.309387 459.854889,476.842529 457.712921,474.944214 
	C455.734070,473.190460 453.282257,472.009552 453.607971,468.469971 
	C450.405579,472.102936 450.405579,472.102936 445.731354,472.523285 
	C442.862701,482.489716 435.485260,486.090057 427.603333,481.370148 
	C424.664337,486.978088 420.841431,488.953369 412.071655,489.395416 
	C413.150421,500.559875 411.485992,503.599854 404.089874,503.973602 
	C400.923859,504.133575 399.438019,500.787048 399.887268,494.115997 
	C397.362213,494.497345 394.890717,494.420868 392.890167,492.590424 
	C391.074463,490.929077 390.748810,488.648041 390.744598,487.524261 
	C386.666656,489.283295 384.870056,493.733521 381.488403,496.828247 
	C381.080566,497.201477 380.171936,497.296997 379.584351,497.154419 
	C377.711639,496.700256 376.138489,497.135071 374.367096,497.886658 
	C371.576996,499.070465 369.419006,497.449463 368.187714,495.084381 
	C365.897308,490.685059 366.284180,486.440308 369.758698,482.682861 
	C370.080292,482.335114 370.537720,482.057861 370.239960,481.632843 
	C368.952942,480.712036 367.801514,479.888214 366.135162,478.696014 
	C357.344971,488.962036 345.583069,496.056732 337.885773,507.624146 
	C339.440125,508.663910 340.345825,509.363770 341.333710,509.916840 
	C363.250854,522.186951 385.617371,521.124084 408.076447,511.781006 
	C416.207520,508.398407 424.015900,504.240082 432.628937,500.083496 
M394.069641,140.440201 
	C393.162445,141.152863 392.071594,141.721039 391.378479,142.602097 
	C387.477173,147.561127 387.957916,154.832703 392.293091,157.858978 
	C397.461273,161.466766 403.614929,160.152481 407.080688,154.412384 
	C410.026367,149.533691 414.740173,147.191849 419.543091,144.837936 
	C422.175293,143.547913 425.247498,143.119598 427.782379,140.791626 
	C426.062927,138.047302 424.106415,135.550156 422.837769,132.742249 
	C421.235718,129.196381 419.165710,128.914810 416.188660,130.810989 
	C409.542664,135.044022 402.437103,138.240753 394.069641,140.440201 
M151.015488,138.576813 
	C149.762466,137.848206 148.776413,136.522369 147.013626,136.780365 
	C144.884323,139.880554 142.755386,142.980225 140.554092,146.185211 
	C141.257477,146.791504 141.683197,147.347107 142.245895,147.615112 
	C150.245407,151.425049 157.841949,155.462616 162.560898,163.719193 
	C164.792999,167.624619 169.503647,166.164185 173.138046,165.150345 
	C176.343155,164.256256 177.749069,161.672028 177.791763,158.254059 
	C177.865875,152.319916 175.914093,149.539459 169.366211,147.642090 
	C162.914185,145.772461 156.693634,143.556702 151.015488,138.576813 
M329.570129,65.257767 
	C331.312317,67.551605 334.918304,68.618637 334.662781,72.596497 
	C330.108124,72.964447 327.190125,64.659950 321.035583,71.150322 
	C335.190033,73.988411 348.374725,76.588951 361.065247,81.390373 
	C362.429260,73.451416 362.454346,73.370392 355.544159,71.231827 
	C347.024628,68.595200 338.423401,66.250473 329.570129,65.257767 
M283.451080,451.575897 
	C284.473785,457.674622 284.021881,464.068726 286.852966,470.017883 
	C293.882690,462.382050 293.846954,442.178009 286.878815,436.991913 
	C283.424530,441.012146 284.668640,446.172821 283.451080,451.575897 
M303.589478,60.737621 
	C305.518799,63.519196 307.328979,66.393776 309.409210,69.057518 
	C311.724213,72.021919 315.640503,71.260887 316.712158,67.625412 
	C317.278595,65.703766 318.550079,64.372635 320.413025,62.652866 
	C314.470428,61.876106 309.272491,61.196678 303.589478,60.737621 
M433.205048,465.815430 
	C430.419189,468.537750 429.061249,471.334442 433.097992,475.056915 
	C434.415527,473.073761 435.233826,470.305420 438.526459,472.171509 
	C439.707397,472.840820 440.880219,470.437775 440.440674,468.916565 
	C439.479034,465.588135 437.519592,463.658600 433.205048,465.815430 
M483.961243,448.788422 
	C479.413239,448.927856 479.770691,452.050385 480.422058,455.003571 
	C480.791901,456.680542 482.167694,458.206726 484.033813,456.869385 
	C486.333130,455.221588 487.511322,452.909729 485.628174,450.102692 
	C485.364105,449.709015 484.929962,449.429382 483.961243,448.788422 
M471.465790,459.903625 
	C472.858887,457.634094 473.547028,455.489594 470.319458,453.613586 
	C468.768860,456.679291 467.519104,459.662079 464.147522,460.936768 
	C467.070770,463.634644 469.074768,462.288757 471.465790,459.903625 
M422.653931,471.954803 
	C422.024811,469.859497 421.194183,467.931671 418.556122,467.154236 
	C417.800079,468.771576 417.055481,470.364471 416.205505,472.182800 
	C418.174377,473.274475 418.965546,475.787140 421.394836,476.284668 
	C422.865997,475.313629 422.782288,473.975464 422.653931,471.954803 
M379.840088,478.322723 
	C375.115509,474.521820 376.987274,480.689453 373.829254,481.138794 
	C377.040314,482.637390 377.156036,485.650177 379.992584,486.053894 
	C381.494385,483.648438 381.105713,481.292603 379.840088,478.322723 
M296.359131,80.550735 
	C296.448730,79.091286 296.639160,77.628441 296.590088,76.173668 
	C296.560699,75.303703 295.908447,74.697914 294.946625,74.689560 
	C293.942932,74.680832 293.275726,75.377647 293.434906,76.218155 
	C294.016418,79.289322 291.709412,80.995590 289.878906,83.095955 
	C292.782837,84.014351 294.407806,82.692215 296.359131,80.550735 
M494.282196,447.513214 
	C493.000977,445.783966 491.510284,444.747772 489.005524,446.102051 
	C490.117615,448.674347 490.312256,451.647095 493.094788,453.590240 
	C495.203003,452.025696 494.881104,450.100037 494.282196,447.513214 
M398.303558,109.905624 
	C399.351074,108.049492 400.743500,106.131836 397.368958,104.779274 
	C396.410858,106.305283 395.816925,108.009583 394.620087,108.929619 
	C393.566803,109.739319 391.839172,109.671875 390.409363,109.991798 
	C392.975372,110.945007 395.402466,112.763153 398.303558,109.905624 
M404.196838,489.007080 
	C401.096558,494.185150 407.195312,492.745422 408.152527,495.545624 
	C409.568237,491.288086 408.688873,489.882324 404.196838,489.007080 
M373.984619,98.062363 
	C375.944489,99.939049 377.701080,100.263023 379.043030,97.401985 
	C379.693634,96.014870 379.729095,94.799782 378.059082,94.126022 
	C374.710602,92.775078 374.645935,95.562897 373.984619,98.062363 
M399.483795,482.247131 
	C398.215485,480.248505 396.913818,480.429352 395.795959,482.318420 
	C395.130341,483.443268 395.363464,484.738068 396.576324,485.254822 
	C398.784271,486.195557 399.499573,484.825745 399.483795,482.247131 
z"/>
<path fill="#000000" opacity="1.000000" stroke="none" 
	d="
M222.749146,278.730804 
	C210.954147,316.723236 243.235641,348.467682 278.536652,348.785919 
	C291.504120,348.902771 304.078674,347.901489 315.954681,342.049438 
	C334.269287,333.024658 344.972900,317.620605 352.316406,299.340302 
	C355.863190,290.511292 358.808899,281.412811 359.302917,271.891052 
	C359.885651,260.660522 356.121582,253.033951 343.035461,253.263870 
	C329.781555,253.496735 316.792725,251.606216 304.520813,246.316254 
	C293.947571,241.758545 286.449677,234.588303 285.146393,222.382797 
	C284.603699,217.300644 285.975342,212.646835 287.105652,207.946075 
	C289.667664,208.062302 289.204376,209.819061 289.542450,210.942612 
	C292.676331,221.357925 299.720825,227.327377 310.217529,229.720673 
	C318.678467,231.649780 327.333282,231.985275 335.872253,233.268387 
	C364.189026,237.523468 372.121582,260.919281 369.824982,281.827118 
	C367.317444,304.655182 355.720093,323.159515 340.867737,339.847961 
	C334.565582,346.929260 327.644989,353.425934 319.946350,359.103668 
	C293.904297,378.309479 267.022614,377.347260 241.184586,359.220581 
	C221.655609,345.519958 208.042938,326.974243 205.150803,302.256256 
	C203.006668,283.931183 207.740158,266.964691 215.726990,250.687469 
	C223.171417,235.515732 233.795364,222.788101 246.001175,211.278900 
	C248.774750,208.663620 251.616730,206.120895 254.885010,203.125122 
	C239.731613,189.340958 232.937943,173.928223 243.961624,155.318405 
	C251.330185,142.879028 261.777557,134.296143 277.361908,135.887817 
	C289.043427,137.080902 298.654633,142.368439 305.947205,153.474167 
	C299.239105,153.205597 294.304230,150.465927 288.958252,149.823761 
	C276.487274,148.325729 264.264801,147.891357 254.180786,157.399414 
	C246.213684,164.911484 246.372772,172.960297 254.888962,179.897934 
	C261.174286,185.018250 268.308441,186.733902 276.403687,185.108002 
	C289.607452,182.456100 301.741882,177.062561 313.776215,171.310226 
	C315.830841,170.328156 317.852570,168.961227 320.766022,169.571548 
	C321.992554,176.317368 322.090790,182.906174 318.219543,189.111160 
	C316.847168,191.310944 314.755188,191.992416 312.460999,192.647675 
	C295.840179,197.394943 280.271637,204.287186 266.276398,214.649490 
	C244.372421,230.867599 231.102386,252.860031 222.749146,278.730804 
z"/>
<path fill="#000000" opacity="1.000000" stroke="none" 
	d="
M397.406738,392.484528 
	C404.133759,394.216492 404.688873,395.486938 401.336731,400.719666 
	C397.746582,406.324066 394.033966,411.853241 390.572784,417.535828 
	C388.609589,420.758972 386.318420,421.750244 382.718506,420.274109 
	C380.008209,419.162720 377.231873,417.993713 373.442963,417.853790 
	C375.100403,420.812195 376.491669,423.366333 377.949127,425.882080 
	C380.964966,431.087982 380.648438,432.385193 374.895355,436.681793 
	C371.352356,432.906433 369.319885,428.158234 367.201019,423.581055 
	C364.283386,417.278473 360.944092,411.473236 354.803406,407.752075 
	C351.536194,405.772217 351.976959,403.470215 354.092804,400.776855 
	C356.243927,398.038574 357.923676,399.359589 359.936646,400.889313 
	C369.840118,408.415131 369.859680,408.389374 387.368530,412.249512 
	C387.603180,410.985260 385.967651,409.928955 386.773132,408.766235 
	C390.011719,404.091431 386.712646,402.214600 383.356537,399.989746 
	C377.949249,396.405121 372.836243,392.375763 367.420624,388.804749 
	C364.431976,386.834015 365.156738,385.069000 366.639587,382.616608 
	C368.237213,379.974335 369.883392,379.666351 372.287720,381.412048 
	C377.945221,385.519653 383.755615,389.424744 389.294556,393.684326 
	C392.497742,396.147644 394.903412,396.072174 397.406738,392.484528 
z"/>
<path fill="#000000" opacity="1.000000" stroke="none" 
	d="
M456.160583,253.298553 
	C446.173553,251.305832 436.570343,249.316345 426.961517,247.354172 
	C424.570953,246.865997 421.782562,247.081787 421.694214,243.416122 
	C421.613464,240.067352 422.591614,237.827087 426.126007,236.611221 
	C432.351593,234.469589 438.414703,231.855774 444.453827,228.513428 
	C439.312469,227.448364 434.191589,226.266495 429.022308,225.360794 
	C425.773895,224.791656 424.384064,223.389114 425.002625,219.932190 
	C425.667206,216.218262 427.820770,216.080566 430.815247,216.740814 
	C439.906860,218.745422 449.020996,220.648560 458.134918,222.550201 
	C460.066223,222.953171 462.553467,222.788879 462.572754,225.529312 
	C462.592133,228.279282 462.698242,231.242401 459.225555,232.608673 
	C453.804230,234.741623 448.468353,237.093033 443.113464,239.391953 
	C442.410980,239.693527 441.809998,240.231598 440.438293,241.138748 
	C445.846466,242.395569 450.475159,243.476227 455.106628,244.544952 
	C456.791229,244.933685 459.128967,244.465851 459.200409,247.149338 
	C459.264069,249.540833 459.865967,252.318115 456.160583,253.298553 
z"/>
<path fill="#000000" opacity="1.000000" stroke="none" 
	d="
M398.768829,320.817596 
	C399.987488,316.865295 401.870392,316.378784 405.229492,318.163849 
	C413.597076,322.610474 422.059509,326.905273 430.667664,330.861053 
	C434.879272,332.796448 435.556274,334.972137 433.277496,338.849731 
	C431.517120,341.845184 430.311096,345.149933 428.272705,348.028198 
	C425.784760,351.541199 422.640198,353.983948 418.222412,353.126678 
	C413.323059,352.176025 408.645630,349.978485 407.624329,344.577606 
	C406.633331,339.337219 404.052979,338.596954 399.598938,339.867554 
	C397.040497,340.597351 394.362518,340.476410 391.761353,340.011475 
	C391.582611,332.675903 391.589691,332.671570 408.638489,330.049377 
	C405.323334,328.356964 402.965637,327.058197 400.526642,325.936218 
	C398.297607,324.910767 397.504517,323.469147 398.768829,320.817596 
M415.271454,335.361786 
	C414.136078,338.796814 413.026733,342.576202 417.967712,343.606049 
	C421.901489,344.425995 423.890198,341.871185 424.302643,337.716339 
	C421.121307,337.170807 419.417572,333.067474 415.271454,335.361786 
z"/>
<path fill="#000000" opacity="1.000000" stroke="none" 
	d="
M464.022644,212.275848 
	C463.031921,215.090469 460.942596,214.447098 459.243164,214.305252 
	C451.799683,213.683884 444.323212,213.224457 436.943420,212.133499 
	C427.922485,210.799942 423.348419,202.021973 427.026581,193.649261 
	C429.016449,189.119705 432.579529,186.459167 437.621521,186.805725 
	C445.245026,187.329712 452.839996,188.258881 460.452698,188.954056 
	C463.936340,189.272186 465.416077,190.945923 465.060608,194.534073 
	C464.657349,198.604385 462.001984,198.115021 459.242462,197.851578 
	C452.961090,197.251862 446.676422,196.679581 440.386078,196.185181 
	C437.895996,195.989471 435.313538,196.513641 435.060181,199.425110 
	C434.805359,202.352844 437.407867,203.263718 439.769897,203.567444 
	C446.028625,204.372223 452.304810,205.366989 458.592316,205.516205 
	C463.370361,205.629608 464.955292,207.414413 464.022644,212.275848 
z"/>
<path fill="#000000" opacity="1.000000" stroke="none" 
	d="
M443.746216,310.430328 
	C442.193848,314.726624 440.670807,318.608307 439.425385,322.577148 
	C438.564850,325.319458 436.949432,325.864014 434.475861,324.988007 
	C432.103607,324.147888 430.815277,322.691986 431.716492,320.051117 
	C432.307465,318.319336 432.911926,316.587067 433.622894,314.902527 
	C434.662201,312.439972 434.183197,310.939514 431.463379,309.936035 
	C428.655426,308.900085 427.894684,310.395813 427.209747,312.506378 
	C426.747589,313.930389 426.196716,315.327454 425.641357,316.718872 
	C424.888916,318.604065 424.290131,320.659027 421.430023,319.469971 
	C418.878967,318.409454 416.933044,317.132233 418.137787,313.902100 
	C418.719757,312.341858 419.161072,310.720978 419.846191,309.209198 
	C420.999939,306.663330 420.256683,305.273743 417.666229,304.235748 
	C415.033447,303.180786 413.573273,303.743958 412.799835,306.438263 
	C412.433258,307.715271 411.840759,308.926575 411.456879,310.199646 
	C410.625671,312.956299 409.441437,314.561615 406.067444,313.270050 
	C402.965790,312.082733 402.477570,310.443115 403.677734,307.557098 
	C405.338806,303.562866 406.929321,299.515656 408.166870,295.376556 
	C409.131744,292.149445 410.954193,292.125671 413.457001,293.165924 
	C422.839233,297.065430 432.211304,300.989716 441.610321,304.848328 
	C444.139374,305.886597 444.714813,307.624084 443.746216,310.430328 
z"/>
<path fill="#000000" opacity="1.000000" stroke="none" 
	d="
M413.902466,355.825012 
	C420.030243,361.209717 421.446838,365.955627 418.793396,371.307556 
	C416.729492,375.470459 412.628479,377.530090 408.056488,376.581238 
	C406.350861,376.227295 403.876770,376.279205 404.052460,373.791840 
	C404.211456,371.541748 404.980927,369.080933 407.923370,368.736328 
	C409.626770,368.536774 411.359802,368.542938 411.630463,366.295715 
	C411.805328,364.843903 411.297760,363.629028 409.956757,362.965881 
	C408.085480,362.040466 406.821838,363.389587 405.509125,364.354065 
	C404.573364,365.041565 403.730743,365.854248 402.820679,366.578644 
	C397.114380,371.120697 394.043182,371.237152 388.554626,367.137421 
	C383.041351,363.019165 381.263184,357.557190 383.578949,351.853668 
	C385.753937,346.496857 390.913910,343.952637 396.510040,345.511200 
	C398.365631,346.027985 400.886780,346.117950 400.371948,348.983337 
	C399.949738,351.333374 398.880280,353.445496 395.829468,353.329834 
	C394.855835,353.292938 393.757050,353.289856 392.916016,353.691315 
	C391.072205,354.571381 390.970490,356.356140 391.540283,357.993378 
	C392.217255,359.938629 393.750366,361.094086 395.823578,360.158051 
	C397.456299,359.420837 398.961151,358.296204 400.345459,357.132629 
	C404.453705,353.679535 408.756317,352.558411 413.902466,355.825012 
z"/>
<path fill="#000000" opacity="1.000000" stroke="none" 
	d="
M413.918365,277.656433 
	C414.252289,273.726166 416.323792,272.754486 419.698700,272.713226 
	C429.826111,272.589417 439.969147,273.353363 450.085541,272.216675 
	C452.171783,271.982269 454.453796,272.420197 454.118225,275.231018 
	C453.800446,277.893097 453.799316,281.226288 449.718964,281.277039 
	C445.231537,281.332855 440.742157,281.257782 436.255646,281.343567 
	C434.675262,281.373779 432.984436,280.849457 431.225616,282.044037 
	C434.801025,285.973328 439.336090,288.466827 443.295013,291.650360 
	C448.873901,296.136505 448.970367,296.270447 445.525085,303.184296 
	C443.610901,303.522644 442.488525,302.103119 441.234711,301.112854 
	C433.279510,294.829956 425.352020,288.511719 417.442444,282.171417 
	C416.027008,281.036743 414.545349,279.907013 413.918365,277.656433 
z"/>
<path fill="#000000" opacity="1.000000" stroke="none" 
	d="
M388.792786,371.143372 
	C394.980896,375.078766 400.798248,378.926483 406.766968,382.523010 
	C409.507019,384.174011 409.889648,385.888519 408.426361,388.650696 
	C406.780396,391.757660 404.778168,391.459747 402.332916,389.914337 
	C393.914124,384.593628 385.515381,379.240570 377.056000,373.985138 
	C373.769012,371.943054 374.302002,369.584564 375.964752,366.827576 
	C377.884094,363.645142 379.826385,365.478577 381.765350,366.671936 
	C384.026611,368.063629 386.246246,369.523010 388.792786,371.143372 
z"/>
<path fill="#000000" opacity="1.000000" stroke="none" 
	d="
M421.613892,260.431824 
	C417.182495,258.926239 419.054352,256.123779 419.729126,253.719254 
	C420.521423,250.895996 422.802277,251.580109 424.663483,252.089539 
	C434.285156,254.723114 443.891541,257.416321 453.467133,260.212555 
	C457.326019,261.339417 457.431549,262.475739 454.336945,269.351776 
	C443.665802,266.443817 432.838867,263.493439 421.613892,260.431824 
z"/>
<path fill="#000000" opacity="1.000000" stroke="none" 
	d="
M166.345657,327.268188 
	C168.100128,327.049500 169.420166,326.874512 170.745316,326.817047 
	C173.288956,326.706757 173.994766,328.745514 174.908630,330.504028 
	C175.834366,332.285339 175.187057,333.647980 173.812134,334.911652 
	C169.197586,339.152771 164.622971,343.437378 158.980286,348.684326 
	C165.668243,347.211182 170.079666,344.115143 175.012466,342.336151 
	C178.260376,341.164795 180.322922,341.462250 181.728668,344.900848 
	C183.212082,348.529480 180.992783,349.612366 178.341522,350.732880 
	C168.690750,354.811737 159.068268,358.957550 149.428391,363.062256 
	C147.438141,363.909729 145.124924,365.193909 143.994370,362.179932 
	C142.838882,359.099487 138.656540,356.218414 142.708145,352.478119 
	C148.448318,347.179047 154.266968,341.964966 161.119583,335.745728 
	C152.024200,336.389771 144.179352,336.553558 136.456772,337.610504 
	C129.741760,338.529572 130.653290,332.744965 128.953857,329.679932 
	C127.158470,326.441803 131.074829,326.197876 132.891953,325.394897 
	C141.714020,321.496460 150.660141,317.879852 159.507675,314.037598 
	C166.569321,310.970886 167.222229,311.263458 168.943649,319.587769 
	C162.567398,322.342804 156.085693,325.143402 149.603989,327.944000 
	C149.647217,328.173767 149.690445,328.403503 149.733673,328.633270 
	C155.126968,328.210510 160.520248,327.787750 166.345657,327.268188 
z"/>
<path fill="#000000" opacity="1.000000" stroke="none" 
	d="
M137.011169,227.958984 
	C127.408676,224.548660 118.148132,221.275574 108.884132,218.012314 
	C106.168968,217.055908 103.595001,216.249680 103.576759,212.435165 
	C103.559479,208.817184 105.638107,207.565323 108.487068,206.487122 
	C117.830803,202.950974 127.109055,199.241058 136.465927,195.740799 
	C139.033264,194.780396 141.566513,193.269806 144.787262,193.917511 
	C145.684860,198.530350 146.612900,202.892792 140.165421,204.294464 
	C137.552750,204.862457 137.284485,206.992020 137.265106,209.374832 
	C137.224472,214.375671 136.277191,219.688065 143.525269,220.615524 
	C144.812881,220.780273 145.628784,221.928955 145.607559,223.127472 
	C145.516327,228.277466 148.011078,233.143631 147.338455,238.531601 
	C142.061584,241.265015 136.207092,240.006989 130.729279,241.063766 
	C124.389618,242.286804 117.863083,242.540298 111.418053,243.218307 
	C108.522102,243.522949 106.222794,243.321762 105.735344,239.509460 
	C105.269127,235.863144 106.547920,234.388382 110.098831,234.033279 
	C120.513298,232.991837 130.910126,231.773972 141.571396,229.833252 
	C140.164856,229.255478 138.758316,228.677719 137.011169,227.958984 
M124.930511,209.792709 
	C123.128777,210.458054 121.327042,211.123413 118.641808,212.115036 
	C122.218498,213.287277 124.667274,214.946594 128.059402,214.371506 
	C127.410706,212.395874 128.921585,209.832321 124.930511,209.792709 
z"/>
<path fill="#000000" opacity="1.000000" stroke="none" 
	d="
M214.059082,390.144928 
	C218.845795,397.851959 218.780258,405.351715 213.936584,412.424591 
	C208.590088,420.231750 200.833527,423.782196 191.485336,422.010193 
	C183.519897,420.500244 177.467621,415.953247 175.171951,407.702332 
	C172.347473,397.550781 176.312805,388.391174 185.345978,383.688202 
	C195.670456,378.312927 205.908600,380.520233 214.059082,390.144928 
M193.982544,412.643982 
	C195.142853,412.653473 196.313202,412.766388 197.461746,412.654816 
	C202.870163,412.129364 207.342453,407.137360 207.578812,401.436768 
	C207.785370,396.454926 203.682724,391.534760 198.466797,390.509094 
	C192.498978,389.335571 186.080719,392.901154 184.492508,398.272278 
	C182.527222,404.918640 185.477448,409.767029 193.982544,412.643982 
z"/>
<path fill="#000000" opacity="1.000000" stroke="none" 
	d="
M152.679733,276.158051 
	C141.193939,277.935455 129.710648,279.729218 118.219963,281.474396 
	C116.266640,281.771057 113.867813,283.490509 112.650200,280.415558 
	C111.525848,277.576172 110.803375,274.786255 113.703804,272.241760 
	C119.188011,267.430481 124.490814,262.412445 130.593140,256.816254 
	C124.750877,256.429291 120.061226,257.951111 115.323311,258.633972 
	C107.920921,259.700836 107.403069,259.365631 107.875893,251.103134 
	C117.816193,249.322708 127.888252,247.516235 137.961685,245.717438 
	C139.268051,245.484161 140.575790,245.166367 141.892914,245.106049 
	C144.176117,245.001480 146.929413,243.352829 148.312576,246.747818 
	C149.606262,249.923141 149.682404,252.536057 146.476898,255.065582 
	C140.757599,259.578827 135.440567,264.601807 129.222427,270.054291 
	C135.224777,270.202362 140.059067,268.726105 144.974899,267.873413 
	C152.612167,266.548615 153.252075,267.127472 153.116211,275.453339 
	C152.956863,275.973083 152.679733,276.158051 152.679733,276.158051 
z"/>
<path fill="#000000" opacity="1.000000" stroke="none" 
	d="
M153.092072,275.875732 
	C157.273056,279.899506 157.401184,284.264008 153.290283,287.198212 
	C150.894653,288.908142 150.208893,290.569855 151.164032,293.494293 
	C152.793427,298.483093 153.663361,303.232941 160.965179,302.992523 
	C164.675446,302.870361 164.576279,307.332306 164.764328,310.356476 
	C162.778641,311.840881 160.714493,311.441101 158.770554,311.321960 
	C147.649094,310.640381 136.536118,309.817596 125.413033,309.166473 
	C122.486313,308.995148 120.833832,307.670898 120.021782,304.929413 
	C119.180649,302.089752 120.243240,300.276550 122.550941,298.589844 
	C132.497391,291.320007 142.344345,283.914032 152.453644,276.357849 
	C152.679733,276.158051 152.956863,275.973083 153.092072,275.875732 
M142.980225,297.698700 
	C139.229980,294.948975 138.118118,298.426331 135.973297,300.321106 
	C141.769119,302.516174 142.832123,302.179291 142.980225,297.698700 
z"/>
<path fill="#000000" opacity="1.000000" stroke="none" 
	d="
M169.009445,362.434387 
	C173.097321,355.658112 179.293793,354.790497 185.811600,355.910156 
	C190.667450,356.744263 193.290497,360.471832 194.651123,365.135101 
	C195.813492,369.118866 194.308258,372.371368 191.981979,375.308533 
	C190.602554,377.050201 188.707870,379.721680 186.336319,377.733154 
	C184.291046,376.018188 181.748489,373.286896 185.097229,370.139191 
	C186.272278,369.034729 186.966705,367.704956 185.722687,366.188965 
	C184.333267,364.495758 182.510834,363.768463 180.383575,364.355713 
	C178.317978,364.925903 177.473099,366.664764 177.549561,368.582153 
	C177.621384,370.383301 178.242203,372.161499 178.610077,373.952118 
	C179.854919,380.011505 176.821487,385.072174 170.759903,387.057495 
	C163.823685,389.329254 157.330933,386.856445 154.684464,380.935059 
	C152.361588,375.737701 154.340118,370.741913 160.404343,367.029175 
	C162.657745,369.110779 165.197647,370.951996 163.499710,374.818634 
	C162.787491,376.440521 162.955017,378.143188 164.629715,379.250183 
	C165.534576,379.848236 166.572800,379.758026 167.462402,379.175262 
	C169.168869,378.057526 169.962036,376.404999 169.419952,374.440186 
	C168.355682,370.582672 166.848633,366.787994 169.009445,362.434387 
z"/>
<path fill="#000000" opacity="1.000000" stroke="none" 
	d="
M151.128540,470.754028 
	C149.457047,473.038788 147.862610,475.350098 144.945984,476.319672 
	C142.191879,477.235260 139.671829,477.143921 137.511383,475.081879 
	C135.309753,472.980377 135.195755,470.423553 136.243774,467.719971 
	C136.647247,466.679077 137.566101,465.782837 136.929565,463.587921 
	C132.642715,466.718414 135.341705,470.621918 134.879822,474.092621 
	C131.811462,474.779297 129.294037,473.517548 126.408470,471.298706 
	C126.873093,474.332794 127.975327,476.998657 126.612953,479.607697 
	C125.217537,482.279999 122.972733,483.324951 120.071953,483.333527 
	C114.853851,483.348907 113.405121,480.900238 113.988197,472.572998 
	C110.957588,471.534271 107.884430,469.779572 104.701767,469.551239 
	C99.678307,469.190887 97.200439,465.640198 94.211349,462.681610 
	C92.401749,460.890442 92.518387,458.474274 93.319633,456.108673 
	C93.762970,454.799713 95.072319,453.451660 93.404648,452.075043 
	C90.764442,454.080872 90.764442,454.080872 92.012672,462.729095 
	C88.898354,464.138947 86.625183,463.039734 85.142181,460.210999 
	C83.419968,456.925995 84.988182,450.856323 87.961212,448.894012 
	C90.851555,446.986298 93.639000,447.332916 96.136444,449.673431 
	C96.726601,450.226471 97.070770,451.040131 97.536491,451.728210 
	C98.521606,453.183594 98.963966,455.639893 101.209435,455.244659 
	C103.640450,454.816772 104.417412,452.680878 104.356514,450.077209 
	C101.052788,448.036713 97.091568,447.969482 93.566650,446.627380 
	C91.600281,445.878662 88.190231,446.749054 88.766884,443.077240 
	C89.337570,439.443268 92.387131,442.326691 94.146446,441.438965 
	C97.685432,435.108948 101.981750,435.117401 106.277420,441.664001 
	C107.788345,443.966614 109.381386,445.848663 112.214996,446.602539 
	C122.719276,449.397034 123.903030,451.481628 121.299370,462.101074 
	C123.150208,462.709717 125.007782,463.320587 127.163483,464.029480 
	C129.184204,462.464417 130.428696,459.521362 133.929733,459.406830 
	C132.898331,456.685638 132.116837,454.203705 134.554031,452.298218 
	C137.068314,450.332458 139.779221,450.617188 142.588089,451.698975 
	C149.727829,454.448730 152.588379,459.135040 151.923416,468.016968 
	C151.602173,469.404510 151.365356,470.079285 151.128540,470.754028 
M104.559631,463.876465 
	C108.902328,465.829376 113.311661,467.558655 118.030006,468.302216 
	C119.142159,465.213776 118.009369,464.233032 115.345947,464.374054 
	C112.232780,464.538879 109.516914,463.612396 108.725967,460.335724 
	C107.906868,456.942352 109.112404,454.120422 112.401779,452.434082 
	C112.539810,452.363342 112.481560,451.909668 112.518158,451.606140 
	C111.461044,451.256927 110.469589,450.479492 108.807945,451.362823 
	C108.916794,455.770966 106.587982,459.580322 104.559631,463.876465 
M141.054001,460.001434 
	C139.793396,462.922089 141.085632,465.441559 143.073471,467.138000 
	C144.449448,468.312256 146.327606,466.868317 147.026917,465.336945 
	C148.401413,462.326996 147.648300,459.691986 144.881607,457.462219 
	C143.677292,458.277649 142.625397,458.989899 141.054001,460.001434 
z"/>
<path fill="#000000" opacity="1.000000" stroke="none" 
	d="
M151.096619,471.176941 
	C151.365356,470.079285 151.602173,469.404510 151.893066,468.467346 
	C155.097168,463.160706 159.656189,461.674316 165.267227,463.029205 
	C166.603928,463.351990 167.781235,463.703949 168.962662,462.593201 
	C170.141174,461.485138 171.942413,461.755493 172.603821,462.677490 
	C175.425888,466.611633 178.816910,466.735504 183.081055,465.461731 
	C184.742798,464.965332 187.357422,465.808716 187.043549,468.658173 
	C186.686539,471.899170 184.343475,471.313599 181.586945,470.366974 
	C183.246796,474.732849 184.252487,478.672913 184.330521,482.792694 
	C184.369888,484.870636 185.390366,486.288605 187.554672,486.555847 
	C189.227936,486.762451 190.487808,485.946533 191.203400,484.484406 
	C192.155197,482.539642 191.379684,481.003571 189.891129,479.626099 
	C188.819122,478.634033 186.203812,478.367767 187.512573,476.066711 
	C188.885071,473.653625 191.001709,474.839722 192.770401,475.677338 
	C195.921829,477.169769 199.076324,478.684448 202.092346,480.427246 
	C206.534317,482.994080 207.855850,489.131592 205.066376,493.422363 
	C201.471909,498.951385 196.372894,498.167664 192.068848,491.424652 
	C185.441910,495.918549 184.682480,495.870148 178.289230,490.306519 
	C177.452805,489.578674 176.578705,489.362274 175.544495,489.532532 
	C172.053680,490.107239 169.360733,488.841125 167.417404,485.946106 
	C166.450012,484.505035 165.045074,484.407013 163.494507,484.311035 
	C154.681412,483.765289 151.622253,480.601562 151.096619,471.176941 
M167.160187,473.743805 
	C167.286484,472.782257 167.707672,471.745789 167.485840,470.872681 
	C166.703278,467.792694 164.468506,466.653046 161.470856,467.175537 
	C158.498138,467.693756 157.911972,469.946960 158.450577,472.432007 
	C159.105179,475.452301 161.475342,476.135559 164.175156,475.715240 
	C165.074203,475.575256 165.878052,474.823792 167.160187,473.743805 
M172.420242,477.321167 
	C172.631424,479.435944 173.682526,480.772980 175.919800,480.478821 
	C177.813248,480.229828 178.723145,478.827606 178.723267,476.985687 
	C178.723526,473.309204 176.660004,471.416595 172.993805,470.523163 
	C172.782562,472.763580 172.601486,474.684235 172.420242,477.321167 
z"/>
<path fill="#000000" opacity="1.000000" stroke="none" 
	d="
M76.711693,444.669678 
	C70.924843,440.768066 69.396568,440.792297 66.413361,445.078033 
	C69.625954,445.218903 72.299545,447.189453 75.504410,446.233521 
	C78.486069,445.344238 81.165977,445.621094 82.926056,448.543762 
	C85.026253,452.031250 83.923943,455.345123 81.933975,458.374786 
	C80.176178,461.050903 77.530861,462.843506 74.304672,461.643768 
	C71.944069,460.765900 70.022957,460.898224 67.655365,461.451538 
	C63.580662,462.403809 61.145542,459.995575 59.700809,456.346344 
	C58.676186,453.758301 59.813663,450.290649 56.222126,448.658264 
	C55.287640,448.233582 55.785774,446.155701 57.178173,446.006866 
	C61.567593,445.537750 62.840683,441.071167 66.193130,439.319427 
	C67.293518,438.744507 67.948051,437.753876 67.216087,436.409149 
	C66.230072,434.597778 66.173500,432.898254 67.910378,431.494690 
	C69.083481,430.546692 70.366364,430.599274 71.634102,431.323090 
	C74.008423,432.678589 72.970924,434.761475 72.757675,436.669495 
	C72.740242,436.825500 72.806892,436.990906 72.889778,437.474976 
	C75.336288,439.576935 79.936760,439.446411 80.963287,443.675354 
	C80.054008,445.722137 78.480652,444.990265 76.711693,444.669678 
z"/>
<path fill="#000000" opacity="1.000000" stroke="none" 
	d="
M191.648987,110.654999 
	C188.914658,107.838387 186.598801,104.582993 183.919571,110.370148 
	C183.133347,112.068390 181.312943,111.680931 179.917725,111.078133 
	C178.157059,110.317429 175.660553,109.822472 176.037201,107.235550 
	C176.390808,104.807060 175.408005,103.086655 174.359741,101.272026 
	C169.100082,102.216621 168.620560,103.018806 170.887985,107.203079 
	C172.710388,110.566109 174.669754,113.854729 176.527405,117.199104 
	C176.750671,117.601074 176.717651,118.145409 176.862518,118.953407 
	C174.344193,120.419479 172.252441,120.234184 170.560486,117.658142 
	C169.921005,116.684486 169.329758,115.678444 168.736206,114.675499 
	C167.680130,112.890976 166.319901,112.430420 164.633759,113.802132 
	C162.683990,115.388298 163.199814,117.011543 164.827911,118.404305 
	C165.829575,119.261192 167.052994,119.856613 168.164948,120.587540 
	C169.073990,121.185081 169.683487,122.000084 169.171463,123.092323 
	C168.625900,124.256058 167.561478,124.159653 166.606323,123.702599 
	C163.597504,122.262840 160.531601,120.838531 158.363113,118.192703 
	C155.118301,114.233589 157.455322,111.483383 161.051773,108.988808 
	C156.773163,107.974831 153.279068,114.759247 148.896896,109.093552 
	C168.408813,95.254623 190.459656,87.500099 212.703094,80.059982 
	C211.401031,75.059280 203.193024,80.373199 203.423920,73.410164 
	C206.684235,70.811607 209.719406,72.186523 212.397491,74.358925 
	C216.114136,77.373795 219.590652,78.296288 224.627823,76.895248 
	C233.241577,74.499443 242.224045,73.404114 251.075562,71.903648 
	C253.718246,71.455681 256.506683,71.340843 257.590820,75.275421 
	C253.309357,76.369133 253.608597,79.390541 254.308350,82.830833 
	C255.088425,86.665962 256.043762,90.568207 254.859894,94.739746 
	C251.687500,94.221313 249.900177,92.807884 249.679825,89.572395 
	C249.488098,86.756927 248.994858,83.962708 248.662476,81.155823 
	C248.485092,79.657982 248.502228,77.793938 246.445709,77.907127 
	C244.065598,78.038101 244.174423,80.118683 244.468719,81.726700 
	C245.296539,86.250168 246.844238,90.651070 246.916611,95.655540 
	C244.199860,96.024086 242.168243,95.635612 241.189819,92.953690 
	C240.008820,89.716560 238.158081,89.466454 236.207748,92.095665 
	C234.604004,94.257652 232.981873,94.312546 231.183472,92.785057 
	C229.508698,91.362595 226.908096,90.122452 228.640289,87.176712 
	C229.776917,85.243752 229.196274,83.538376 227.961761,82.168159 
	C226.664734,80.728592 225.073135,81.921989 223.848007,82.569702 
	C221.730133,83.689407 222.365204,85.597351 222.888657,87.408791 
	C224.081528,91.536812 225.568558,95.602570 225.849808,100.287804 
	C222.432587,100.832138 220.410141,99.708046 219.625717,96.346985 
	C218.982895,93.592636 218.250839,90.855904 217.455627,88.141457 
	C216.906250,86.266098 216.090317,84.590096 213.230576,85.885475 
	C213.008606,91.682632 216.994553,96.622543 217.391953,102.707687 
	C212.097473,104.770798 209.745880,94.681160 203.776901,100.026466 
	C203.705200,102.211571 206.131424,102.681419 207.751724,103.800987 
	C208.811111,104.532967 209.620911,105.417068 208.862274,106.684784 
	C208.071304,108.006516 206.846634,107.561867 205.799652,106.954559 
	C202.483170,105.030853 199.159180,103.094788 196.523758,100.242844 
	C195.379883,99.004967 194.141266,97.593681 195.917252,95.972862 
	C196.993881,94.990273 197.895630,94.083061 196.907669,92.608353 
	C195.860580,91.045395 194.476761,92.024811 193.295334,92.341324 
	C192.046539,92.675888 190.880875,93.320755 189.138153,94.059196 
	C191.030975,98.678093 192.796341,103.108589 194.662292,107.496292 
	C195.908310,110.426193 195.375000,111.736816 191.648987,110.654999 
M202.697342,92.603500 
	C203.760223,95.065895 205.384308,94.414619 207.054794,93.371521 
	C208.410248,92.525146 208.442520,91.347031 207.949615,89.962471 
	C207.542068,88.817635 207.171494,87.800491 205.630905,88.066566 
	C203.419052,88.448555 201.921799,89.368668 202.697342,92.603500 
M235.768555,85.406631 
	C238.255295,85.723892 239.730652,84.973259 239.083740,82.146553 
	C238.742569,80.655846 238.248383,78.900978 236.221603,79.743446 
	C233.489120,80.879257 233.975754,82.971924 235.768555,85.406631 
M182.060944,97.125610 
	C179.090652,98.653885 180.254044,100.563713 181.827667,102.142807 
	C182.897644,103.216515 184.591949,102.835114 185.115097,101.524559 
	C185.994217,99.322235 185.491791,97.389008 182.060944,97.125610 
z"/>
</svg>